<?xml version="1.0" encoding="UTF-8"?>
<svg xmlns="http://www.w3.org/2000/svg" xmlns:xlink="http://www.w3.org/1999/xlink" width="171.910507" height="171.910507" viewBox="0 0 171.910507 171.910507">
<defs>
<clipPath id="clip-0">
<path clip-rule="nonzero" d="M 0 0 L 171.820312 0 L 171.820312 171.820312 L 0 171.820312 Z M 0 0 "/>
</clipPath>
<clipPath id="clip-1">
<path clip-rule="nonzero" d="M 0 0 L 171.820312 0 L 171.820312 171.820312 L 0 171.820312 Z M 0 0 "/>
</clipPath>
<clipPath id="clip-2">
<path clip-rule="nonzero" d="M 0 0 L 171.820312 0 L 171.820312 171.820312 L 0 171.820312 Z M 0 0 "/>
</clipPath>
<clipPath id="clip-3">
<path clip-rule="nonzero" d="M 0 0 L 171.820312 0 L 171.820312 171.820312 L 0 171.820312 Z M 0 0 "/>
</clipPath>
<clipPath id="clip-4">
<path clip-rule="nonzero" d="M 0 0 L 171.820312 0 L 171.820312 171.820312 L 0 171.820312 Z M 0 0 "/>
</clipPath>
<clipPath id="clip-5">
<path clip-rule="nonzero" d="M 0 0 L 171.820312 0 L 171.820312 171.820312 L 0 171.820312 Z M 0 0 "/>
</clipPath>
<clipPath id="clip-6">
<path clip-rule="nonzero" d="M 0 22 L 171.820312 22 L 171.820312 149 L 0 149 Z M 0 22 "/>
</clipPath>
<clipPath id="clip-7">
<path clip-rule="nonzero" d="M 8 14 L 149 14 L 149 154 L 8 154 Z M 8 14 "/>
</clipPath>
<clipPath id="clip-8">
<path clip-rule="nonzero" d="M 8.753906 84.347656 C 8.753906 122.820312 39.941406 154 78.40625 154 C 116.878906 154 148.0625 122.820312 148.0625 84.347656 C 148.0625 45.878906 116.878906 14.691406 78.40625 14.691406 C 39.941406 14.691406 8.753906 45.878906 8.753906 84.347656 Z M 8.753906 84.347656 "/>
</clipPath>
<clipPath id="clip-9">
<path clip-rule="nonzero" d="M 0 0 L 9 0 L 9 9 L 0 9 Z M 0 0 "/>
</clipPath>
<clipPath id="clip-10">
<rect x="0" y="0" width="9" height="9"/>
</clipPath>
<g id="source-5" clip-path="url(#clip-10)">
<g clip-path="url(#clip-9)">
<path fill="none" stroke-width="74.721003" stroke-linecap="butt" stroke-linejoin="miter" stroke="rgb(0%, 0%, 0%)" stroke-opacity="1" stroke-miterlimit="10" d="M 149.5 0 C 149.5 82.536458 82.536458 149.5 0 149.5 C -82.536458 149.5 -149.5 82.536458 -149.5 0 C -149.5 -82.536458 -82.536458 -149.5 0 -149.5 C 82.536458 -149.5 149.5 -82.536458 149.5 0 Z M 149.5 0 " transform="matrix(0.0100334, 0, 0, 0.0100334, 0, 0)"/>
</g>
</g>
<pattern id="pattern-0" patternUnits="userSpaceOnUse" x="0" y="0" width="9" height="9" viewBox="0 0 9 9" patternTransform="matrix(0.996148, 0, 0, -0.996148, 4.202095, 173.130551)">
<use xlink:href="#source-5"/>
</pattern>
<clipPath id="clip-11">
<path clip-rule="nonzero" d="M 0 0 L 171.820312 0 L 171.820312 171.820312 L 0 171.820312 Z M 0 0 "/>
</clipPath>
</defs>
<path fill-rule="nonzero" fill="rgb(83.921569%, 27.058824%, 27.058824%)" fill-opacity="0.49" d="M 1.742188 85.914062 C 1.742188 132.394531 39.425781 170.078125 85.914062 170.078125 C 132.394531 170.078125 170.078125 132.394531 170.078125 85.914062 C 170.078125 39.425781 132.394531 1.742188 85.914062 1.742188 C 39.425781 1.742188 1.742188 39.425781 1.742188 85.914062 Z M 1.742188 85.914062 "/>
<g clip-path="url(#clip-0)">
<path fill="none" stroke-width="3.48697" stroke-linecap="butt" stroke-linejoin="miter" stroke="rgb(0%, 0%, 0%)" stroke-opacity="1" stroke-miterlimit="10" d="M 1.743094 -85.958788 C 1.743094 -132.463453 39.446305 -170.166664 85.958788 -170.166664 C 132.463453 -170.166664 170.166664 -132.463453 170.166664 -85.958788 C 170.166664 -39.446305 132.463453 -1.743094 85.958788 -1.743094 C 39.446305 -1.743094 1.743094 -39.446305 1.743094 -85.958788 Z M 1.743094 -85.958788 " transform="matrix(0.99948, 0, 0, -0.99948, 0, 0)"/>
</g>
<path fill-rule="nonzero" fill="rgb(83.921569%, 27.058824%, 27.058824%)" fill-opacity="0.49" d="M 1.742188 85.914062 C 1.742188 130.789062 38.125 167.179688 83.007812 167.179688 C 127.890625 167.179688 164.273438 130.789062 164.273438 85.914062 C 164.273438 41.03125 127.890625 4.644531 83.007812 4.644531 C 38.125 4.644531 1.742188 41.03125 1.742188 85.914062 Z M 1.742188 85.914062 "/>
<g clip-path="url(#clip-1)">
<path fill="none" stroke-width="3.48697" stroke-linecap="butt" stroke-linejoin="miter" stroke="rgb(0%, 0%, 0%)" stroke-opacity="1" stroke-miterlimit="10" d="M 1.743094 -85.958788 C 1.743094 -130.857149 38.144847 -167.266718 83.051025 -167.266718 C 127.957202 -167.266718 164.358955 -130.857149 164.358955 -85.958788 C 164.358955 -41.05261 127.957202 -4.646949 83.051025 -4.646949 C 38.144847 -4.646949 1.743094 -41.05261 1.743094 -85.958788 Z M 1.743094 -85.958788 " transform="matrix(0.99948, 0, 0, -0.99948, 0, 0)"/>
</g>
<path fill-rule="nonzero" fill="rgb(83.921569%, 27.058824%, 27.058824%)" fill-opacity="0.49" d="M 1.742188 85.914062 C 1.742188 129.191406 36.824219 164.273438 80.105469 164.273438 C 123.386719 164.273438 158.46875 129.191406 158.46875 85.914062 C 158.46875 42.628906 123.386719 7.546875 80.105469 7.546875 C 36.824219 7.546875 1.742188 42.628906 1.742188 85.914062 Z M 1.742188 85.914062 "/>
<g clip-path="url(#clip-2)">
<path fill="none" stroke-width="3.48697" stroke-linecap="butt" stroke-linejoin="miter" stroke="rgb(0%, 0%, 0%)" stroke-opacity="1" stroke-miterlimit="10" d="M 1.743094 -85.958788 C 1.743094 -129.258661 36.843389 -164.358955 80.14717 -164.358955 C 123.450951 -164.358955 158.551246 -129.258661 158.551246 -85.958788 C 158.551246 -42.651098 123.450951 -7.550804 80.14717 -7.550804 C 36.843389 -7.550804 1.743094 -42.651098 1.743094 -85.958788 Z M 1.743094 -85.958788 " transform="matrix(0.99948, 0, 0, -0.99948, 0, 0)"/>
</g>
<path fill-rule="nonzero" fill="rgb(83.921569%, 27.058824%, 27.058824%)" fill-opacity="0.49" d="M 1.742188 85.914062 C 1.742188 127.585938 35.527344 161.371094 77.203125 161.371094 C 118.878906 161.371094 152.664062 127.585938 152.664062 85.914062 C 152.664062 44.234375 118.878906 10.449219 77.203125 10.449219 C 35.527344 10.449219 1.742188 44.234375 1.742188 85.914062 Z M 1.742188 85.914062 "/>
<g clip-path="url(#clip-3)">
<path fill="none" stroke-width="3.48697" stroke-linecap="butt" stroke-linejoin="miter" stroke="rgb(0%, 0%, 0%)" stroke-opacity="1" stroke-miterlimit="10" d="M 1.743094 -85.958788 C 1.743094 -127.652356 35.545839 -161.4551 77.243315 -161.4551 C 118.940792 -161.4551 152.743536 -127.652356 152.743536 -85.958788 C 152.743536 -44.257402 118.940792 -10.454658 77.243315 -10.454658 C 35.545839 -10.454658 1.743094 -44.257402 1.743094 -85.958788 Z M 1.743094 -85.958788 " transform="matrix(0.99948, 0, 0, -0.99948, 0, 0)"/>
</g>
<path fill-rule="nonzero" fill="rgb(83.921569%, 27.058824%, 27.058824%)" fill-opacity="1" d="M 8.753906 84.347656 C 8.753906 122.820312 39.941406 154 78.40625 154 C 116.878906 154 148.0625 122.820312 148.0625 84.347656 C 148.0625 45.878906 116.878906 14.691406 78.40625 14.691406 C 39.941406 14.691406 8.753906 45.878906 8.753906 84.347656 Z M 8.753906 84.347656 "/>
<g clip-path="url(#clip-4)">
<path fill="none" stroke-width="3.48697" stroke-linecap="butt" stroke-linejoin="miter" stroke="rgb(0%, 0%, 0%)" stroke-opacity="1" stroke-miterlimit="10" d="M 8.758463 -84.391566 C 8.758463 -122.88425 39.962199 -154.080169 78.447067 -154.080169 C 116.939751 -154.080169 148.139578 -122.88425 148.139578 -84.391566 C 148.139578 -45.90279 116.939751 -14.699054 78.447067 -14.699054 C 39.962199 -14.699054 8.758463 -45.90279 8.758463 -84.391566 Z M 8.758463 -84.391566 " transform="matrix(0.99948, 0, 0, -0.99948, 0, 0)"/>
</g>
<path fill-rule="nonzero" fill="rgb(15.686275%, 61.960784%, 37.647059%)" fill-opacity="1" d="M 41.535156 84.347656 C 41.535156 113.769531 65.378906 137.613281 94.796875 137.613281 C 124.214844 137.613281 148.0625 113.769531 148.0625 84.347656 C 148.0625 54.933594 124.214844 31.082031 94.796875 31.082031 C 65.378906 31.082031 41.535156 54.933594 41.535156 84.347656 Z M 41.535156 84.347656 "/>
<g clip-path="url(#clip-5)">
<path fill="none" stroke-width="3.48697" stroke-linecap="butt" stroke-linejoin="miter" stroke="rgb(0%, 0%, 0%)" stroke-opacity="1" stroke-miterlimit="10" d="M 41.556779 -84.391566 C 41.556779 -113.828757 65.412941 -137.68492 94.846224 -137.68492 C 124.279507 -137.68492 148.139578 -113.828757 148.139578 -84.391566 C 148.139578 -54.962191 124.279507 -31.098212 94.846224 -31.098212 C 65.412941 -31.098212 41.556779 -54.962191 41.556779 -84.391566 Z M 41.556779 -84.391566 " transform="matrix(0.99948, 0, 0, -0.99948, 0, 0)"/>
</g>
<path fill-rule="nonzero" fill="rgb(83.921569%, 27.058824%, 27.058824%)" fill-opacity="1" stroke-width="3.48697" stroke-linecap="butt" stroke-linejoin="miter" stroke="rgb(0%, 0%, 0%)" stroke-opacity="1" stroke-miterlimit="10" d="M 41.556779 -84.391566 C 41.556779 -104.202655 57.612007 -120.261792 77.427005 -120.261792 C 97.234185 -120.261792 113.297231 -104.202655 113.297231 -84.391566 C 113.297231 -64.580477 97.234185 -48.52134 77.427005 -48.52134 C 57.612007 -48.52134 41.556779 -64.580477 41.556779 -84.391566 Z M 41.556779 -84.391566 " transform="matrix(0.99948, 0, 0, -0.99948, 0, 0)"/>
<path fill-rule="nonzero" fill="rgb(15.686275%, 61.960784%, 37.647059%)" fill-opacity="1" stroke-width="3.48697" stroke-linecap="butt" stroke-linejoin="miter" stroke="rgb(0%, 0%, 0%)" stroke-opacity="1" stroke-miterlimit="10" d="M 66.151607 -84.391566 C 66.151607 -97.410058 76.703972 -107.966332 89.722465 -107.966332 C 102.740957 -107.966332 113.297231 -97.410058 113.297231 -84.391566 C 113.297231 -71.369165 102.740957 -60.820708 89.722465 -60.820708 C 76.703972 -60.820708 66.151607 -71.369165 66.151607 -84.391566 Z M 66.151607 -84.391566 " transform="matrix(0.99948, 0, 0, -0.99948, 0, 0)"/>
<path fill-rule="nonzero" fill="rgb(83.921569%, 27.058824%, 27.058824%)" fill-opacity="1" d="M 27.226562 99.089844 C 31.828125 99.089844 35.878906 96.753906 38.269531 93.210938 C 36.511719 90.953125 35.464844 88.117188 35.464844 85.042969 C 35.464844 82.296875 36.296875 79.742188 37.722656 77.628906 C 35.289062 74.503906 31.496094 72.496094 27.226562 72.496094 C 19.882812 72.496094 13.929688 78.449219 13.929688 85.792969 C 13.929688 93.140625 19.882812 99.089844 27.226562 99.089844 Z M 38.269531 93.210938 C 40.703125 96.328125 44.5 98.335938 48.757812 98.335938 C 53.191406 98.335938 57.117188 96.171875 59.53125 92.847656 C 57.9375 90.652344 57 87.953125 57 85.042969 C 57 82.121094 57.9375 79.425781 59.53125 77.234375 C 57.117188 73.90625 53.191406 71.742188 48.757812 71.742188 C 44.164062 71.742188 40.109375 74.078125 37.722656 77.628906 C 39.480469 79.878906 40.527344 82.714844 40.527344 85.792969 C 40.527344 88.535156 39.695312 91.089844 38.269531 93.210938 Z M 59.53125 92.847656 C 61.945312 96.171875 65.867188 98.335938 70.300781 98.335938 C 74.5 98.335938 78.25 96.382812 80.683594 93.339844 C 78.863281 91.066406 77.78125 88.179688 77.78125 85.042969 C 77.78125 81.902344 78.863281 79.015625 80.683594 76.742188 C 78.25 73.691406 74.5 71.742188 70.300781 71.742188 C 65.867188 71.742188 61.945312 73.90625 59.53125 77.234375 C 61.121094 79.425781 62.058594 82.121094 62.058594 85.042969 C 62.058594 87.953125 61.121094 90.652344 59.53125 92.847656 Z M 80.683594 93.339844 C 83.125 96.382812 86.871094 98.335938 91.074219 98.335938 C 95.503906 98.335938 99.429688 96.171875 101.84375 92.847656 C 100.25 90.652344 99.3125 87.953125 99.3125 85.042969 C 99.3125 82.121094 100.25 79.425781 101.84375 77.234375 C 99.429688 73.90625 95.503906 71.742188 91.074219 71.742188 C 86.871094 71.742188 83.125 73.691406 80.683594 76.742188 C 82.503906 79.015625 83.59375 81.902344 83.59375 85.042969 C 83.59375 88.179688 82.503906 91.066406 80.683594 93.339844 Z M 101.84375 92.847656 C 104.261719 96.171875 108.183594 98.335938 112.609375 98.335938 C 117.035156 98.335938 120.960938 96.171875 123.375 92.847656 C 121.785156 90.652344 120.847656 87.953125 120.847656 85.042969 C 120.847656 82.121094 121.785156 79.425781 123.375 77.234375 C 120.960938 73.90625 117.035156 71.742188 112.609375 71.742188 C 108.183594 71.742188 104.261719 73.90625 101.84375 77.234375 C 103.433594 79.425781 104.371094 82.121094 104.371094 85.042969 C 104.371094 87.953125 103.433594 90.652344 101.84375 92.847656 Z M 125.90625 85.042969 C 125.90625 82.121094 124.964844 79.425781 123.375 77.234375 C 125.792969 73.90625 129.714844 71.742188 134.140625 71.742188 C 141.488281 71.742188 147.4375 77.695312 147.4375 85.042969 C 147.4375 92.382812 141.488281 98.335938 134.140625 98.335938 C 129.714844 98.335938 125.792969 96.171875 123.375 92.847656 C 124.964844 90.652344 125.90625 87.953125 125.90625 85.042969 Z M 125.90625 85.042969 "/>
<g clip-path="url(#clip-6)">
<path fill="none" stroke-width="3.48697" stroke-linecap="butt" stroke-linejoin="miter" stroke="rgb(0%, 0%, 0%)" stroke-opacity="1" stroke-miterlimit="10" d="M 27.240736 -99.141428 C 31.844694 -99.141428 35.897584 -96.804274 38.289454 -93.259461 C 36.530726 -91.000473 35.483306 -88.163059 35.483306 -85.08724 C 35.483306 -82.339717 36.31577 -79.7837 37.742294 -77.669318 C 35.307433 -74.542691 31.51249 -72.533834 27.240736 -72.533834 C 19.893163 -72.533834 13.936939 -78.490058 13.936939 -85.837631 C 13.936939 -93.189112 19.893163 -99.141428 27.240736 -99.141428 Z M 38.289454 -93.259461 C 40.724314 -96.378271 44.523166 -98.387129 48.783195 -98.387129 C 53.219097 -98.387129 57.146922 -96.22194 59.562241 -92.895991 C 57.967661 -90.699535 57.029673 -87.998912 57.029673 -85.08724 C 57.029673 -82.163844 57.967661 -79.467129 59.562241 -77.274582 C 57.146922 -73.944724 53.219097 -71.779535 48.783195 -71.779535 C 44.187053 -71.779535 40.130255 -74.116689 37.742294 -77.669318 C 39.501021 -79.92049 40.548441 -82.757903 40.548441 -85.837631 C 40.548441 -88.581246 39.715977 -91.137263 38.289454 -93.259461 Z M 59.562241 -92.895991 C 61.97756 -96.22194 65.901477 -98.387129 70.337378 -98.387129 C 74.538783 -98.387129 78.290735 -96.432987 80.725596 -93.388435 C 78.904336 -91.113814 77.821741 -88.225592 77.821741 -85.08724 C 77.821741 -81.94498 78.904336 -79.056759 80.725596 -76.782138 C 78.290735 -73.729768 74.538783 -71.779535 70.337378 -71.779535 C 65.901477 -71.779535 61.97756 -73.944724 59.562241 -77.274582 C 61.152912 -79.467129 62.0909 -82.163844 62.0909 -85.08724 C 62.0909 -87.998912 61.152912 -90.699535 59.562241 -92.895991 Z M 80.725596 -93.388435 C 83.168273 -96.432987 86.916317 -98.387129 91.12163 -98.387129 C 95.553624 -98.387129 99.481449 -96.22194 101.896768 -92.895991 C 100.302188 -90.699535 99.3642 -87.998912 99.3642 -85.08724 C 99.3642 -82.163844 100.302188 -79.467129 101.896768 -77.274582 C 99.481449 -73.944724 95.553624 -71.779535 91.12163 -71.779535 C 86.916317 -71.779535 83.168273 -73.729768 80.725596 -76.782138 C 82.546856 -79.056759 83.637267 -81.94498 83.637267 -85.08724 C 83.637267 -88.225592 82.546856 -91.113814 80.725596 -93.388435 Z M 101.896768 -92.895991 C 104.315995 -96.22194 108.239912 -98.387129 112.667997 -98.387129 C 117.096082 -98.387129 121.023907 -96.22194 123.439226 -92.895991 C 121.848555 -90.699535 120.910567 -87.998912 120.910567 -85.08724 C 120.910567 -82.163844 121.848555 -79.467129 123.439226 -77.274582 C 121.023907 -73.944724 117.096082 -71.779535 112.667997 -71.779535 C 108.239912 -71.779535 104.315995 -73.944724 101.896768 -77.274582 C 103.487439 -79.467129 104.425427 -82.163844 104.425427 -85.08724 C 104.425427 -87.998912 103.487439 -90.699535 101.896768 -92.895991 Z M 125.971794 -85.08724 C 125.971794 -82.163844 125.029898 -79.467129 123.439226 -77.274582 C 125.858454 -73.944724 129.782371 -71.779535 134.210456 -71.779535 C 141.561937 -71.779535 147.514253 -77.735759 147.514253 -85.08724 C 147.514253 -92.430905 141.561937 -98.387129 134.210456 -98.387129 C 129.782371 -98.387129 125.858454 -96.22194 123.439226 -92.895991 C 125.029898 -90.699535 125.971794 -87.998912 125.971794 -85.08724 Z M 125.971794 -85.08724 " transform="matrix(0.99948, 0, 0, -0.99948, 0, 0)"/>
</g>
<g clip-path="url(#clip-7)">
<g clip-path="url(#clip-8)">
<path fill-rule="nonzero" fill="url(#pattern-0)" d="M 8.753906 14.691406 L 148.0625 14.691406 L 148.0625 154 L 8.753906 154 Z M 8.753906 14.691406 "/>
</g>
</g>
<g clip-path="url(#clip-11)">
<path fill="none" stroke-width="3.48697" stroke-linecap="butt" stroke-linejoin="miter" stroke="rgb(0%, 0%, 0%)" stroke-opacity="1" stroke-miterlimit="10" d="M 8.758463 -84.391566 C 8.758463 -122.88425 39.962199 -154.080169 78.447067 -154.080169 C 116.939751 -154.080169 148.139578 -122.88425 148.139578 -84.391566 C 148.139578 -45.90279 116.939751 -14.699054 78.447067 -14.699054 C 39.962199 -14.699054 8.758463 -45.90279 8.758463 -84.391566 Z M 8.758463 -84.391566 " transform="matrix(0.99948, 0, 0, -0.99948, 0, 0)"/>
</g>
</svg>
