<?xml version="1.0" standalone="no"?>
<!DOCTYPE svg PUBLIC "-//W3C//DTD SVG 20010904//EN"
 "http://www.w3.org/TR/2001/REC-SVG-20010904/DTD/svg10.dtd">
<svg version="1.0" xmlns="http://www.w3.org/2000/svg"
 width="401.000000pt" height="401.000000pt" viewBox="0 0 401.000000 401.000000"
 preserveAspectRatio="xMidYMid meet">
<metadata>
Created by potrace 1.14, written by Peter Selinger 2001-2017
</metadata>
<g transform="translate(0.000000,401.000000) scale(0.100000,-0.100000)"
fill="#000000" stroke="none">
<path d="M1971 3736 c-8 -9 -8 -16 -2 -20 5 -4 9 -19 8 -34 -2 -21 -8 -27 -29
-29 -15 -1 -30 3 -34 8 -4 6 -11 6 -20 -2 -11 -9 -12 -15 -3 -25 7 -9 16 -11
23 -5 6 5 22 8 36 7 19 -1 25 -7 27 -28 1 -15 -3 -30 -8 -34 -6 -4 -6 -11 2
-20 10 -12 7 -20 -16 -44 -26 -27 -26 -35 -2 -31 4 0 7 -4 7 -10 0 -5 4 -8 9
-4 11 6 11 -34 1 -50 -4 -5 -1 -21 7 -35 l14 -25 -2 25 c-3 60 1 91 13 84 7
-4 8 -3 4 4 -4 7 -1 12 8 12 9 0 16 5 16 10 0 7 -6 7 -19 0 -28 -15 -38 -12
-16 4 16 12 17 16 6 30 -10 12 -11 19 -2 30 8 9 9 16 2 21 -6 3 -9 19 -7 35 2
18 -1 30 -8 30 -7 0 -8 3 -1 8 6 4 10 18 9 32 -1 14 2 30 7 36 6 7 4 16 -5 23
-10 9 -16 8 -25 -3z m4 -235 c-3 -6 -11 -11 -16 -11 -5 0 -4 6 3 14 14 16 24
13 13 -3z"/>
<path d="M1930 3685 c0 -8 2 -15 4 -15 2 0 11 -3 19 -6 12 -4 14 0 10 15 -6
24 -33 29 -33 6z"/>
<path d="M2008 3682 c-4 -15 -1 -18 14 -14 10 2 17 9 15 15 -6 19 -24 18 -29
-1z"/>
<path d="M2055 3660 c-4 -6 -13 -9 -19 -7 -7 3 -19 1 -27 -4 -12 -7 -12 -9 1
-10 8 -1 19 -1 24 0 4 1 14 -3 21 -9 9 -7 16 -6 24 4 9 10 8 16 -3 25 -10 9
-16 9 -21 1z"/>
<path d="M1948 3623 c-21 -5 -24 -33 -4 -33 7 0 16 9 19 20 3 11 4 19 4 19 -1
-1 -10 -3 -19 -6z"/>
<path d="M2008 3608 c5 -19 23 -20 29 -1 2 6 -5 13 -15 15 -15 4 -18 1 -14
-14z"/>
<path d="M1772 3528 c6 -18 28 -21 28 -4 0 9 -7 16 -16 16 -9 0 -14 -5 -12
-12z"/>
<path d="M1817 3534 c-3 -3 -3 -13 0 -22 5 -11 3 -13 -7 -7 -9 6 -11 4 -6 -4
5 -8 3 -11 -6 -9 -7 2 -13 -1 -13 -7 0 -5 2 -9 5 -8 34 12 43 14 35 6 -15 -12
-15 -43 0 -43 7 0 12 8 11 18 0 10 6 17 16 17 22 0 19 20 -2 20 -8 0 -15 8
-15 17 0 19 -9 31 -18 22z"/>
<path d="M1847 3521 c-3 -14 0 -17 14 -14 11 3 19 12 19 19 0 21 -27 17 -33
-5z"/>
<path d="M2090 3525 c0 -8 2 -15 4 -15 2 0 12 -3 21 -6 15 -6 15 -4 4 15 -16
25 -29 27 -29 6z"/>
<path d="M2140 3535 c-1 -5 -3 -17 -4 -25 0 -8 -9 -15 -18 -15 -24 0 -35 -15
-12 -15 18 -1 18 -1 2 -14 -10 -7 -18 -18 -18 -23 0 -12 -37 -24 -43 -14 -2 3
-2 0 -1 -7 2 -7 -6 -22 -17 -33 -37 -37 -12 -32 28 5 74 70 80 76 88 76 4 0 2
-7 -5 -15 -9 -10 -9 -15 -1 -15 6 0 11 5 11 10 0 6 5 10 10 10 6 0 10 -8 10
-17 0 -13 3 -14 12 -5 9 9 8 15 -8 27 -17 13 -17 14 -1 15 9 0 17 5 17 10 0 7
-7 7 -21 0 -11 -7 -23 -9 -26 -6 -3 3 6 11 21 17 14 7 26 18 26 26 0 19 -17
16 -25 -4 -7 -17 -8 -16 -15 2 -5 11 -9 16 -10 10z"/>
<path d="M1787 3463 c-10 -3 -16 -10 -14 -16 6 -20 24 -18 30 3 3 11 4 19 4
19 -1 -1 -10 -3 -20 -6z"/>
<path d="M1847 3454 c3 -8 14 -19 24 -24 10 -6 16 -18 14 -29 -3 -15 1 -19 16
-16 11 2 22 -2 25 -9 3 -7 12 -13 21 -13 13 0 13 2 -2 13 -10 7 -17 25 -17 40
0 14 -3 22 -7 18 -12 -17 -33 -14 -38 5 -3 10 -13 21 -23 24 -13 3 -17 0 -13
-9z"/>
<path d="M1650 3414 c-9 -10 -9 -14 -1 -14 6 0 11 -12 11 -27 -1 -25 -2 -26
-14 -10 -16 21 -26 22 -26 1 0 -8 4 -13 9 -10 5 3 12 -1 15 -10 4 -12 2 -15
-9 -10 -18 7 -21 -10 -2 -17 9 -4 8 -8 -3 -16 -8 -5 -11 -14 -6 -18 5 -4 11
-2 13 5 3 6 9 12 14 12 12 0 11 -37 -1 -45 -8 -5 -7 -11 1 -21 15 -18 45 2 30
20 -9 12 -12 30 -12 74 1 51 2 62 12 67 13 9 11 22 -5 28 -8 3 -20 -1 -26 -9z"/>
<path d="M2285 3420 c-4 -7 -3 -16 3 -22 6 -6 8 -17 5 -24 -3 -8 0 -14 6 -14
6 0 12 9 13 20 0 11 1 25 2 32 1 16 -21 22 -29 8z"/>
<path d="M2073 3403 c-18 -7 -16 -20 2 -20 8 0 15 6 15 14 0 7 -1 13 -2 12 -2
0 -9 -3 -15 -6z"/>
<path d="M1682 3355 c-13 -29 2 -75 25 -75 18 0 16 10 -4 26 -17 12 -16 13 4
14 12 0 25 -5 28 -10 4 -7 11 -7 18 -2 15 12 47 11 47 0 0 -5 5 -6 10 -3 6 3
10 -1 10 -9 0 -9 4 -16 10 -16 5 0 6 7 3 17 -4 11 -3 14 5 9 7 -4 12 -2 12 3
0 6 11 11 25 11 14 0 25 -5 25 -10 0 -6 6 -5 14 2 20 18 0 44 -21 27 -7 -7
-16 -9 -20 -6 -3 4 -13 1 -21 -6 -13 -10 -14 -8 -7 12 5 15 4 21 -3 17 -6 -3
-13 2 -15 11 -4 17 -5 17 -6 0 -1 -11 -6 -15 -13 -11 -7 5 -9 2 -5 -8 4 -11
-1 -15 -19 -15 -13 0 -27 4 -30 9 -4 5 -10 5 -17 0 -15 -12 -47 -12 -47 0 0 5
7 11 15 14 19 8 20 24 2 24 -8 0 -19 -11 -25 -25z"/>
<path d="M2124 3363 c-4 -10 -7 -21 -6 -24 1 -7 -30 -5 -45 4 -6 4 -16 0 -22
-7 -9 -11 -9 -16 0 -22 7 -4 14 -3 16 3 2 5 15 8 28 5 14 -2 22 -8 19 -13 -3
-5 -1 -9 5 -9 5 0 12 6 15 13 3 6 3 2 0 -10 -7 -29 1 -29 31 2 28 27 32 40 10
31 -18 -7 -45 3 -45 16 0 5 5 6 10 3 6 -3 10 1 10 9 0 21 -16 20 -26 -1z"/>
<path d="M2250 3371 c0 -5 6 -12 13 -14 9 -4 8 -8 -3 -16 -10 -7 -18 -6 -28 1
-15 13 -38 -4 -28 -21 8 -13 57 -3 68 13 4 6 10 8 13 4 4 -3 -3 -16 -15 -28
-16 -16 -19 -25 -11 -33 8 -8 11 -7 11 5 0 9 7 19 16 22 22 8 21 9 44 -16 12
-13 20 -17 20 -8 0 7 -8 19 -17 26 -16 12 -16 13 9 14 15 0 30 -5 34 -11 5 -8
10 -6 16 5 13 22 0 40 -17 26 -8 -7 -19 -9 -24 -5 -6 3 -21 1 -33 -5 -17 -9
-15 -5 7 13 17 14 27 28 23 32 -3 4 -16 -3 -29 -16 l-22 -22 -18 21 c-18 23
-29 28 -29 13z"/>
<path d="M2155 3350 c-3 -5 -1 -10 4 -10 6 0 11 5 11 10 0 6 -2 10 -4 10 -3 0
-8 -4 -11 -10z"/>
<path d="M1575 3341 c-3 -6 -2 -18 3 -27 7 -13 10 -13 20 -1 10 11 9 17 -2 26
-10 8 -16 9 -21 2z"/>
<path d="M1917 3279 c-10 -11 -22 -17 -27 -14 -5 3 -7 0 -5 -7 3 -8 -6 -24
-20 -36 -30 -26 -34 -48 -6 -30 11 6 26 25 35 42 9 17 14 22 11 10 -4 -14 -1
-21 10 -21 10 0 14 6 10 14 -7 20 13 55 27 47 7 -4 8 -3 4 4 -10 16 -18 14
-39 -9z"/>
<path d="M2010 3292 c0 -4 9 -13 21 -20 14 -9 18 -19 14 -35 -4 -15 -3 -18 3
-9 7 11 16 7 42 -17 19 -17 36 -28 38 -26 3 2 -10 18 -28 35 -28 26 -31 33
-19 42 11 7 9 9 -7 5 -13 -3 -26 3 -35 14 -14 19 -29 25 -29 11z"/>
<path d="M2290 3290 c0 -5 5 -10 10 -10 6 0 10 5 10 10 0 6 -4 10 -10 10 -5 0
-10 -4 -10 -10z"/>
<path d="M1976 3263 c-11 -11 -6 -23 9 -23 8 0 15 4 15 9 0 13 -16 22 -24 14z"/>
<path d="M2287 3255 c-8 -18 11 -31 25 -17 11 11 3 32 -12 32 -4 0 -10 -7 -13
-15z"/>
<path d="M1981 3205 c-1 -23 -3 -27 -11 -15 -7 11 -10 8 -10 -15 0 -17 5 -36
12 -43 8 -8 8 -15 -2 -27 -9 -10 -10 -19 -4 -23 6 -4 11 -18 11 -32 2 -23 1
-23 -11 -7 -13 16 -36 24 -36 11 0 -4 8 -13 18 -20 15 -12 14 -13 -10 -14 -16
0 -28 5 -28 10 0 6 -6 5 -14 -2 -17 -16 0 -44 18 -29 6 5 22 8 36 7 14 -1 29
3 33 9 5 6 7 4 5 -4 -4 -16 25 -51 42 -51 16 0 12 10 -12 32 -17 14 -18 18 -6
14 10 -3 20 -1 23 4 4 6 -1 10 -9 10 -9 0 -16 5 -16 10 0 6 7 10 15 10 8 0 15
5 15 10 0 16 -22 12 -36 -7 -12 -17 -13 -16 -14 8 0 14 5 30 11 36 8 8 8 13 0
17 -6 4 -11 17 -11 28 0 12 3 19 6 15 4 -3 13 0 21 8 13 13 12 17 -1 31 -9 8
-16 12 -17 7 -1 -4 -5 3 -9 17 -8 25 -8 24 -9 -5z m29 -35 c0 -5 -4 -10 -10
-10 -5 0 -10 5 -10 10 0 6 5 10 10 10 6 0 10 -4 10 -10z"/>
<path d="M1770 3214 c0 -3 9 -13 21 -22 22 -19 18 -52 -7 -52 -8 0 -14 -4 -14
-10 0 -17 27 -11 35 8 7 16 8 15 16 -3 8 -17 9 -16 6 7 -3 17 0 25 6 21 6 -4
8 0 4 11 -4 10 -7 25 -8 34 0 14 -2 13 -9 -3 -7 -18 -8 -19 -15 -2 -7 15 -35
25 -35 11z"/>
<path d="M2134 3202 c4 -12 -3 -29 -19 -46 -15 -16 -24 -31 -21 -34 3 -3 15 6
27 19 21 24 21 24 15 2 -5 -14 -3 -23 3 -23 6 0 11 8 11 18 1 15 2 15 15 -2 8
-11 18 -16 22 -12 4 4 1 11 -7 17 -13 8 -13 10 0 19 13 9 13 11 0 20 -13 9
-13 11 0 19 8 6 11 13 7 17 -4 4 -14 -1 -22 -12 -13 -17 -14 -17 -15 -1 0 9
-5 17 -11 17 -6 0 -8 -8 -5 -18z m36 -32 c0 -5 -4 -10 -10 -10 -5 0 -10 5 -10
10 0 6 5 10 10 10 6 0 10 -4 10 -10z"/>
<path d="M1780 3170 c0 -5 5 -10 10 -10 6 0 10 5 10 10 0 6 -4 10 -10 10 -5 0
-10 -4 -10 -10z"/>
<path d="M1846 3165 c-8 -21 3 -45 20 -45 19 0 18 10 -3 26 -11 8 -13 13 -5
14 6 0 12 5 12 10 0 15 -17 12 -24 -5z"/>
<path d="M1930 3170 c0 -5 5 -10 10 -10 6 0 10 5 10 10 0 6 -4 10 -10 10 -5 0
-10 -4 -10 -10z"/>
<path d="M2090 3170 c0 -5 5 -10 10 -10 6 0 10 5 10 10 0 6 -4 10 -10 10 -5 0
-10 -4 -10 -10z"/>
<path d="M2054 3025 c-9 -23 10 -40 25 -22 9 11 8 17 -4 27 -12 10 -16 9 -21
-5z"/>
<path d="M1947 2988 c-21 -11 -22 -28 -2 -28 8 0 15 5 15 12 0 9 3 9 12 0 8
-8 8 -15 -2 -27 -11 -14 -11 -18 -1 -25 16 -9 7 -28 -22 -49 -19 -13 -18 -14
5 -35 24 -21 28 -33 17 -51 -9 -14 1 -75 12 -75 5 0 9 9 9 19 0 11 5 23 10 26
7 4 7 11 2 18 -11 15 -12 47 0 47 4 0 8 7 8 16 0 8 5 12 10 9 6 -3 10 1 10 10
0 9 -3 14 -7 12 -15 -9 -28 18 -30 61 -2 49 -21 74 -46 60z"/>
<path d="M1110 2924 c0 -3 10 -14 23 -25 l22 -18 -24 -1 c-27 0 -20 -15 7 -15
10 0 18 -9 20 -22 4 -29 23 -30 19 -1 -1 15 5 24 23 29 l25 7 -25 1 -25 2 24
20 c13 11 21 22 17 26 -3 4 -12 -2 -20 -12 -18 -26 -47 -28 -53 -4 -5 17 -33
28 -33 13z"/>
<path d="M1160 2920 c0 -5 5 -10 11 -10 5 0 7 5 4 10 -3 6 -8 10 -11 10 -2 0
-4 -4 -4 -10z"/>
<path d="M1327 2924 c-3 -3 -3 -13 0 -22 5 -11 3 -13 -7 -7 -9 6 -11 4 -5 -5
6 -10 4 -12 -8 -7 -9 3 -19 2 -22 -3 -4 -6 3 -10 15 -10 13 0 19 -4 14 -12 -4
-7 -3 -8 4 -4 15 9 16 -46 2 -60 -8 -8 -7 -14 3 -23 11 -9 17 -8 26 3 8 10 9
16 1 21 -5 3 -10 20 -10 36 0 20 4 28 12 23 7 -5 8 -3 4 5 -5 8 -3 11 6 9 7
-2 13 1 13 7 0 5 -7 10 -15 10 -8 0 -15 8 -15 17 0 19 -9 31 -18 22z"/>
<path d="M1450 2922 c0 -4 9 -13 20 -20 19 -12 20 -11 8 8 -13 20 -28 27 -28
12z"/>
<path d="M1499 2923 c-1 -5 -2 -15 -3 -23 0 -8 -8 -16 -16 -16 -32 -3 -34 -6
-10 -13 14 -4 26 -13 26 -21 3 -32 6 -34 13 -10 4 14 14 25 24 25 9 0 17 5 16
10 0 6 -11 10 -23 9 -19 -1 -22 3 -18 22 2 13 2 24 -2 24 -3 0 -7 -3 -7 -7z"/>
<path d="M1530 2920 c0 -5 7 -10 15 -10 8 0 15 5 15 10 0 6 -7 10 -15 10 -8 0
-15 -4 -15 -10z"/>
<path d="M2410 2921 c0 -18 53 -67 57 -54 3 9 10 10 24 3 12 -7 19 -7 19 -1 0
5 -8 12 -17 14 -15 4 -15 6 5 12 12 4 22 14 22 21 0 23 -27 16 -35 -8 -6 -20
-8 -20 -12 -5 -2 9 -9 17 -14 17 -6 0 -5 -8 1 -20 6 -11 8 -20 5 -20 -10 0
-35 28 -35 39 0 6 -4 11 -10 11 -5 0 -10 -4 -10 -9z"/>
<path d="M2740 2916 c0 -7 8 -16 19 -19 14 -3 17 0 14 14 -6 22 -33 26 -33 5z"/>
<path d="M2790 2912 c0 -10 -3 -22 -7 -26 -5 -4 -9 -12 -9 -17 -1 -5 -2 -13
-3 -19 0 -5 -7 -10 -15 -10 -7 0 -16 -9 -19 -20 -4 -15 -11 -18 -33 -14 -19 3
-24 1 -16 -4 17 -11 14 -21 -15 -50 -13 -13 -23 -25 -23 -28 0 -9 24 9 38 28
10 14 17 16 33 8 17 -10 19 -8 15 12 -3 16 5 33 25 52 22 23 29 25 29 13 0 -9
5 -17 10 -17 7 0 7 6 1 19 -8 15 -7 20 5 25 9 3 20 4 24 1 5 -3 11 -1 15 5 4
6 -5 10 -21 10 -21 0 -25 4 -21 20 3 11 1 23 -4 26 -5 3 -9 -3 -9 -14z"/>
<path d="M2823 2911 c-10 -16 -9 -18 8 -14 10 3 19 12 19 19 0 20 -13 17 -27
-5z"/>
<path d="M2606 2888 c3 -4 -2 -8 -10 -8 -9 0 -16 -5 -16 -10 0 -7 6 -7 19 0
26 13 34 27 16 27 -8 0 -12 -4 -9 -9z"/>
<path d="M2623 2874 c-24 -26 -30 -40 -13 -29 6 3 10 -1 10 -9 0 -9 4 -16 9
-16 12 0 23 29 15 42 -4 6 1 8 15 3 12 -4 21 -2 21 4 0 6 -7 11 -16 11 -8 0
-12 5 -9 10 12 19 -10 8 -32 -16z m17 -24 c0 -5 -2 -10 -4 -10 -3 0 -8 5 -11
10 -3 6 -1 10 4 10 6 0 11 -4 11 -10z"/>
<path d="M2410 2870 c0 -5 5 -10 10 -10 6 0 10 5 10 10 0 6 -4 10 -10 10 -5 0
-10 -4 -10 -10z"/>
<path d="M2745 2870 c3 -5 8 -10 11 -10 2 0 4 5 4 10 0 6 -5 10 -11 10 -5 0
-7 -4 -4 -10z"/>
<path d="M1128 2846 c-22 -16 -23 -26 -4 -26 7 0 16 9 19 20 3 11 4 20 4 20
-1 0 -10 -7 -19 -14z"/>
<path d="M1190 2845 c26 -34 41 -48 47 -42 6 6 -8 21 -42 47 -19 14 -19 14 -5
-5z"/>
<path d="M1456 2833 c-14 -14 -24 -28 -22 -31 5 -4 20 9 45 41 20 26 7 21 -23
-10z"/>
<path d="M2427 2846 c-9 -7 -17 -19 -17 -26 0 -9 8 -5 21 9 24 26 22 35 -4 17z"/>
<path d="M2460 2840 c-6 -12 -7 -20 -1 -20 5 0 12 8 14 18 4 15 6 14 12 -5 4
-11 15 -23 26 -26 11 -3 17 -12 15 -24 -3 -14 2 -19 18 -19 16 0 22 6 22 22 0
16 -5 21 -19 18 -12 -2 -21 4 -24 16 -3 11 -12 20 -19 20 -8 0 -14 5 -14 10 0
17 -19 11 -30 -10z"/>
<path d="M1530 2830 c0 -5 7 -10 15 -10 8 0 15 5 15 10 0 6 -7 10 -15 10 -8 0
-15 -4 -15 -10z"/>
<path d="M2826 2825 c-3 -9 0 -15 9 -15 8 0 15 7 15 15 0 8 -4 15 -9 15 -5 0
-11 -7 -15 -15z"/>
<path d="M1250 2801 c-27 -17 -38 -43 -18 -40 31 4 48 -2 48 -16 0 -8 8 -15
18 -15 14 0 15 2 2 10 -13 9 -13 10 0 10 8 1 5 5 -8 11 -14 5 -20 13 -16 20 4
8 3 9 -4 5 -7 -4 -12 -3 -12 3 0 5 6 11 13 14 6 2 10 7 7 9 -3 3 -16 -2 -30
-11z"/>
<path d="M1390 2814 c0 -4 8 -13 18 -20 16 -13 16 -14 -2 -7 -13 4 -17 3 -12
-5 4 -8 -2 -16 -16 -22 -20 -9 -19 -10 7 -4 17 4 37 6 46 6 25 -1 18 24 -13
42 -15 10 -28 14 -28 10z"/>
<path d="M2614 2796 c-9 -10 -7 -15 6 -24 14 -9 19 -8 24 3 7 20 -16 36 -30
21z"/>
<path d="M1880 2765 c0 -18 5 -25 20 -25 10 0 23 -6 27 -14 4 -8 22 -22 38
-31 l30 -16 -35 6 c-19 4 -41 12 -48 18 -9 7 -16 7 -20 0 -10 -15 -42 -12 -42
4 0 8 -4 11 -10 8 -5 -3 -10 1 -10 9 0 9 -4 16 -10 16 -5 0 -10 -6 -10 -13 0
-7 -9 -18 -20 -25 -12 -7 -18 -17 -15 -22 4 -6 11 -8 16 -4 5 3 8 0 7 -8 -2
-7 2 -12 9 -11 8 2 10 -4 6 -13 -10 -25 20 -12 33 15 13 25 22 26 47 4 10 -10
17 -12 17 -5 0 7 10 12 23 11 12 0 16 -3 10 -6 -7 -2 -13 -11 -13 -19 0 -8
-10 -14 -25 -14 -21 0 -25 -5 -25 -30 0 -25 4 -30 25 -30 19 0 25 5 25 23 0
12 8 30 19 39 18 15 18 13 19 -38 0 -37 -3 -52 -11 -47 -6 4 -8 0 -4 -10 4
-10 2 -16 -5 -14 -6 1 -13 -4 -15 -11 -3 -8 1 -10 13 -5 11 4 15 3 10 -5 -4
-6 -1 -21 6 -32 11 -17 11 -22 -1 -29 -9 -6 -10 -11 -2 -15 6 -4 11 -16 11
-27 0 -10 5 -19 10 -19 6 0 10 8 10 18 0 10 5 23 11 29 8 8 8 13 0 17 -6 4
-11 16 -11 27 0 13 4 18 12 13 8 -5 9 -2 5 10 -4 9 -3 14 2 11 5 -3 12 -1 16
5 3 5 -1 10 -10 10 -9 0 -13 5 -10 10 3 6 1 10 -4 10 -15 0 -14 47 2 54 10 5
10 7 0 12 -15 7 -17 44 -3 44 6 0 10 -7 10 -15 0 -8 5 -14 12 -12 12 2 14 -3
17 -38 1 -9 11 -15 26 -15 21 0 25 5 25 30 0 23 -4 30 -20 30 -26 0 -64 36
-45 43 7 3 18 0 24 -6 8 -8 14 -8 22 0 13 13 51 5 42 -10 -4 -6 0 -8 10 -4 11
4 14 2 10 -9 -8 -21 5 -17 33 11 l26 26 -21 18 c-12 10 -21 24 -21 30 0 7 -5
9 -10 6 -6 -4 -8 -11 -5 -16 4 -5 -1 -9 -10 -9 -9 0 -13 -4 -10 -10 9 -14 -29
-12 -43 2 -9 9 -15 10 -20 2 -11 -17 -49 -23 -49 -8 0 8 9 14 19 14 10 0 18 7
18 15 0 9 9 15 25 15 20 0 25 5 25 25 0 21 -5 25 -29 25 -22 0 -29 -4 -27 -17
2 -10 -10 -31 -25 -47 -24 -24 -31 -27 -44 -16 -8 7 -12 16 -9 21 3 5 -2 9
-10 9 -10 0 -16 9 -16 25 0 20 -5 25 -25 25 -20 0 -25 -5 -25 -25z"/>
<path d="M1160 2734 c0 -8 -4 -13 -9 -10 -5 3 -8 -7 -7 -23 0 -16 4 -27 8 -25
5 3 8 -4 8 -16 0 -12 5 -18 10 -15 7 4 7 13 0 26 -7 13 -7 19 0 19 5 0 10 -4
10 -10 0 -5 5 -10 11 -10 5 0 7 5 4 10 -3 6 1 10 9 10 9 0 16 4 16 10 0 5 -13
7 -29 5 -28 -3 -29 -2 -21 21 6 15 6 24 0 24 -6 0 -10 -7 -10 -16z"/>
<path d="M1497 2728 c4 -19 3 -20 -7 -8 -10 13 -11 13 -7 0 2 -8 0 -23 -5 -32
-12 -25 -3 -22 27 7 25 26 33 41 15 30 -5 -3 -10 1 -10 9 0 9 -4 16 -9 16 -5
0 -7 -10 -4 -22z"/>
<path d="M2446 2734 c-9 -24 -7 -31 5 -14 9 13 10 13 6 0 -2 -8 -11 -15 -20
-15 -8 0 -19 -4 -23 -8 -4 -4 2 -7 14 -7 11 0 24 -4 27 -10 3 -5 13 -10 21
-10 8 0 13 4 9 9 -7 12 36 11 51 -1 18 -13 38 17 20 31 -8 7 -17 8 -20 3 -3
-5 -20 -9 -38 -9 -18 -1 -27 1 -20 4 6 3 12 9 12 14 0 6 -4 7 -10 4 -5 -3 -10
1 -10 9 0 21 -16 21 -24 0z"/>
<path d="M2587 2744 c-3 -5 1 -15 9 -22 16 -14 18 -5 5 17 -5 7 -11 9 -14 5z"/>
<path d="M2789 2730 c-3 -17 -11 -25 -26 -26 -12 -1 -28 -4 -37 -7 -11 -4 -13
-1 -9 11 6 15 5 15 -10 3 -14 -11 -15 -17 -6 -28 9 -10 15 -11 23 -3 15 15 59
13 50 -2 -6 -10 -5 -10 7 -1 12 10 18 10 29 0 10 -9 11 -9 6 1 -5 8 0 12 15
12 12 0 19 3 15 7 -4 4 -15 8 -24 8 -9 0 -19 11 -22 25 l-7 25 -4 -25z"/>
<path d="M1410 2700 c0 -19 3 -21 12 -12 9 9 9 15 0 24 -9 9 -12 7 -12 -12z"/>
<path d="M1237 2703 c-3 -5 1 -13 8 -20 10 -10 14 -9 18 1 8 21 -15 37 -26 19z"/>
<path d="M1450 2700 c0 -5 5 -10 10 -10 6 0 10 5 10 10 0 6 -4 10 -10 10 -5 0
-10 -4 -10 -10z"/>
<path d="M1523 2698 c-21 -10 -39 -48 -22 -48 5 0 9 8 9 17 0 9 3 14 6 10 4
-3 13 1 21 9 20 19 14 24 -14 12z"/>
<path d="M2580 2700 c0 -5 5 -10 11 -10 5 0 7 5 4 10 -3 6 -8 10 -11 10 -2 0
-4 -4 -4 -10z"/>
<path d="M1361 2663 c8 -13 17 -23 21 -23 5 0 8 -7 8 -16 0 -8 5 -12 10 -9 6
3 10 2 10 -4 0 -5 -6 -11 -12 -14 -7 -2 -10 -8 -6 -12 4 -4 19 5 33 20 15 14
24 29 21 33 -4 3 -11 0 -16 -8 -7 -10 -10 -11 -10 -2 0 6 -7 12 -15 12 -8 0
-15 8 -15 17 0 9 -3 13 -7 10 -3 -4 -13 -1 -21 6 -13 11 -14 9 -1 -10z"/>
<path d="M2790 2659 c0 -11 4 -18 10 -14 5 3 7 12 3 20 -7 21 -13 19 -13 -6z"/>
<path d="M1277 2649 c-4 -14 -10 -18 -18 -13 -9 5 -10 2 -6 -12 7 -18 6 -18
-7 -1 -16 21 -23 22 -23 2 0 -24 31 -28 46 -6 7 12 19 21 27 21 8 0 11 6 8 15
-9 21 -21 19 -27 -6z"/>
<path d="M2660 2656 c0 -8 7 -17 16 -20 11 -4 15 -14 12 -31 -5 -26 6 -35 15
-12 4 9 6 9 6 -1 1 -7 6 -10 12 -7 6 4 13 -2 16 -14 3 -12 12 -21 19 -21 20 0
17 -18 -3 -22 -13 -3 -15 -6 -6 -11 17 -11 67 39 56 55 -5 9 -9 5 -14 -12 l-7
-25 -7 23 c-4 12 -12 22 -17 22 -16 0 -39 28 -28 35 15 9 12 22 -5 22 -8 0
-15 -4 -15 -9 0 -5 -7 -3 -15 6 -8 8 -15 19 -15 25 0 6 -4 11 -10 11 -5 0 -10
-6 -10 -14z"/>
<path d="M2455 2650 c3 -5 8 -10 11 -10 2 0 4 5 4 10 0 6 -5 10 -11 10 -5 0
-7 -4 -4 -10z"/>
<path d="M2585 2650 c-3 -5 -1 -10 4 -10 6 0 11 5 11 10 0 6 -2 10 -4 10 -3 0
-8 -4 -11 -10z"/>
<path d="M2620 2649 c0 -5 5 -7 10 -4 6 3 10 8 10 11 0 2 -4 4 -10 4 -5 0 -10
-5 -10 -11z"/>
<path d="M1323 2630 c-9 -13 -9 -21 -2 -26 6 -3 9 -14 6 -24 -2 -10 -1 -24 4
-31 5 -8 9 -9 10 -4 5 53 5 72 0 87 -6 16 -7 16 -18 -2z"/>
<path d="M2520 2610 c0 -19 -5 -30 -14 -30 -7 0 -16 -8 -19 -19 -3 -14 0 -17
13 -14 10 3 21 14 23 25 3 11 10 17 16 13 6 -3 11 0 11 7 0 9 3 9 10 -2 9 -13
10 -13 10 0 -1 18 -21 44 -38 48 -7 1 -12 -9 -12 -28z"/>
<path d="M2616 2615 c-3 -9 0 -15 9 -15 16 0 20 16 6 24 -5 3 -11 -1 -15 -9z"/>
<path d="M1220 2587 c-8 -7 -21 -20 -28 -29 -11 -14 -11 -16 7 -11 12 3 21 11
21 18 0 7 6 15 13 18 6 2 10 7 7 10 -3 3 -12 0 -20 -6z"/>
<path d="M1255 2590 c-3 -5 1 -10 9 -10 9 0 16 5 16 10 0 6 -4 10 -9 10 -6 0
-13 -4 -16 -10z"/>
<path d="M1430 2590 c0 -5 5 -10 10 -10 6 0 10 -6 10 -14 0 -13 28 -31 36 -23
4 4 -42 57 -50 57 -3 0 -6 -4 -6 -10z"/>
<path d="M1110 2572 c0 -4 9 -13 19 -19 16 -10 18 -9 14 8 -5 18 -33 28 -33
11z"/>
<path d="M1159 2574 c-1 -5 -2 -16 -3 -24 0 -8 -11 -16 -24 -18 -12 -2 -20 -7
-17 -12 3 -5 17 -5 33 0 26 10 26 9 7 -6 -11 -8 -27 -19 -35 -24 -8 -5 -12
-12 -7 -16 4 -4 16 1 27 11 19 17 20 17 20 0 0 -10 3 -15 7 -11 4 4 8 15 8 24
0 9 7 18 15 18 32 3 34 6 10 13 -14 4 -25 14 -25 23 0 18 -14 37 -16 22z"/>
<path d="M1500 2575 c-1 -5 -3 -17 -4 -25 0 -8 -11 -16 -23 -18 -13 -2 -23 -8
-23 -13 0 -5 10 -8 23 -6 17 1 22 -3 21 -20 -1 -27 13 -31 19 -5 4 14 6 13 12
-6 4 -13 12 -21 18 -19 15 5 21 27 8 27 -6 0 -20 9 -31 20 -21 21 -16 26 10
11 8 -6 19 -7 24 -3 6 3 0 9 -14 12 -15 3 -27 16 -31 30 -4 14 -8 21 -9 15z"/>
<path d="M1527 2559 c-4 -15 -2 -18 7 -10 7 6 16 8 19 4 4 -3 7 1 7 10 0 24
-27 21 -33 -4z"/>
<path d="M2410 2569 c0 -7 8 -18 18 -25 16 -13 16 -13 0 -14 -10 0 -18 -4 -18
-10 0 -12 3 -12 24 -4 17 7 22 34 6 34 -5 0 -10 7 -10 15 0 8 -4 15 -10 15 -5
0 -10 -5 -10 -11z"/>
<path d="M2460 2575 c-1 -5 -1 -20 -1 -31 1 -13 -9 -30 -25 -43 -15 -12 -24
-24 -21 -28 4 -3 16 5 28 18 21 24 21 24 15 2 -4 -13 -3 -23 3 -23 5 0 11 8
14 18 4 15 5 15 13 -3 11 -24 34 -31 34 -10 0 8 -5 15 -11 15 -11 0 -39 25
-39 35 0 3 9 1 20 -5 11 -6 20 -7 20 -2 0 6 -9 12 -19 15 -11 2 -21 15 -24 28
-2 13 -5 20 -7 14z"/>
<path d="M2620 2566 c0 -9 -5 -16 -11 -16 -5 0 -7 -4 -4 -10 3 -5 -1 -10 -9
-10 -9 0 -16 -4 -16 -8 0 -9 41 -8 57 1 7 4 14 3 18 -3 8 -13 25 -13 25 0 0 6
-7 10 -16 10 -8 0 -12 5 -8 11 4 8 -1 9 -17 4 -21 -7 -22 -6 -11 8 9 10 10 17
2 22 -5 3 -10 -1 -10 -9z"/>
<path d="M2823 2561 c-10 -16 -9 -18 8 -14 10 3 19 12 19 19 0 20 -13 17 -27
-5z"/>
<path d="M1314 2543 c5 -9 0 -13 -15 -13 -12 0 -19 -3 -15 -7 4 -4 15 -8 24
-8 9 0 19 -11 22 -25 l7 -25 4 25 c2 15 11 25 21 25 9 0 20 4 24 8 4 4 -3 7
-15 7 -15 0 -20 4 -15 13 6 9 5 9 -7 0 -12 -10 -18 -10 -29 0 -10 9 -11 9 -6
0z"/>
<path d="M2778 2510 c-7 -11 -18 -20 -25 -20 -7 0 -13 -4 -13 -10 0 -19 27
-10 38 13 l11 22 0 -22 c1 -13 5 -23 9 -23 5 0 8 10 8 23 -1 14 5 22 16 22 9
0 20 4 24 8 4 4 -7 7 -24 7 -21 0 -36 -7 -44 -20z"/>
<path d="M1180 2504 c0 -10 31 -36 37 -31 3 3 -2 13 -10 22 -16 15 -27 19 -27
9z"/>
<path d="M1466 2494 c-11 -7 -17 -17 -13 -20 3 -4 14 1 23 10 21 22 15 28 -10
10z"/>
<path d="M2600 2499 c0 -5 5 -7 10 -4 6 3 10 8 10 11 0 2 -4 4 -10 4 -5 0 -10
-5 -10 -11z"/>
<path d="M2635 2500 c3 -5 10 -10 16 -10 5 0 9 5 9 10 0 6 -7 10 -16 10 -8 0
-12 -4 -9 -10z"/>
<path d="M2810 2501 c0 -6 5 -13 10 -16 6 -4 7 -11 4 -17 -4 -6 -1 -9 6 -6 22
7 22 22 0 36 -11 7 -20 8 -20 3z"/>
<path d="M2620 2480 c0 -5 5 -10 10 -10 6 0 10 5 10 10 0 6 -4 10 -10 10 -5 0
-10 -4 -10 -10z"/>
<path d="M700 2450 c-10 -6 -11 -12 -3 -22 6 -7 10 -24 9 -38 -1 -19 -7 -25
-28 -27 -15 -1 -30 3 -34 8 -4 6 -11 6 -20 -2 -11 -9 -12 -15 -3 -25 7 -9 16
-11 23 -5 6 5 22 8 36 7 19 -1 25 -7 26 -26 1 -14 -2 -32 -7 -41 -4 -9 -5 -19
-2 -23 4 -4 8 -19 10 -34 1 -15 0 -21 -3 -14 -3 6 -10 12 -15 12 -6 0 -6 -7
-1 -17 5 -10 7 -24 4 -32 -2 -8 0 -11 5 -8 6 4 11 -4 11 -18 0 -14 -5 -28 -10
-31 -5 -3 -4 -11 2 -19 7 -8 9 -19 6 -24 -4 -5 -1 -13 6 -17 7 -4 10 -3 5 1
-4 5 0 19 8 31 9 14 11 25 5 29 -6 3 -10 18 -10 32 0 15 3 24 6 20 4 -3 13 1
21 9 9 8 13 18 9 21 -3 4 -12 1 -18 -5 -7 -7 -17 -12 -22 -12 -6 0 -3 5 7 11
9 5 17 15 17 20 0 6 -4 7 -10 4 -6 -4 -10 5 -10 19 0 14 5 26 11 26 8 0 8 4 1
13 -6 7 -10 26 -9 42 2 24 7 30 27 31 14 1 30 -2 36 -7 7 -6 16 -4 23 5 9 10
8 16 -3 25 -9 8 -16 8 -20 2 -4 -5 -19 -9 -34 -8 -21 2 -27 8 -29 29 -1 15 2
30 8 33 5 4 9 10 9 15 0 13 -25 19 -40 10z m27 -346 c-3 -3 -12 -4 -19 -1 -8
3 -5 6 6 6 11 1 17 -2 13 -5z"/>
<path d="M1560 2435 c0 -20 5 -25 25 -25 15 0 25 -6 25 -14 0 -8 7 -16 15 -20
10 -4 15 1 15 14 0 11 -7 20 -15 20 -9 0 -15 9 -15 25 0 20 -5 25 -25 25 -20
0 -25 -5 -25 -25z"/>
<path d="M1651 2446 c-8 -10 -9 -16 -2 -21 9 -5 9 -33 1 -55 -2 -3 -2 -9 -1
-14 2 -12 -20 -37 -29 -31 -4 3 -10 -4 -13 -14 -3 -14 -11 -18 -26 -14 -18 5
-21 1 -21 -26 0 -26 4 -31 25 -31 18 0 25 5 25 19 0 11 11 32 25 47 22 24 25
25 25 7 0 -10 -5 -24 -12 -31 -8 -8 -8 -15 2 -27 12 -14 15 -14 28 -1 9 9 11
19 6 28 -12 19 -14 38 -3 38 5 0 9 -7 9 -15 0 -8 7 -15 15 -15 9 0 15 -9 15
-25 0 -20 5 -25 25 -25 16 0 25 -6 25 -15 0 -8 9 -15 20 -15 22 0 18 25 -6 34
-8 3 -14 17 -14 31 0 20 -5 25 -25 25 -15 0 -25 6 -25 14 0 7 -10 16 -21 19
-14 4 -20 11 -16 20 3 8 3 18 -1 21 -10 11 -11 40 -1 52 6 7 5 15 -5 23 -10 9
-16 8 -25 -3z"/>
<path d="M1720 2435 c0 -16 -6 -25 -15 -25 -8 0 -15 -9 -15 -20 0 -13 5 -18
15 -14 8 4 15 12 15 20 0 8 10 14 25 14 20 0 25 5 25 25 0 20 -5 25 -25 25
-20 0 -25 -5 -25 -25z"/>
<path d="M2190 2435 c0 -20 5 -25 25 -25 16 0 25 -6 25 -15 0 -8 6 -15 14 -15
8 0 17 -7 20 -16 8 -21 -42 -69 -66 -66 -13 3 -18 -4 -18 -23 0 -35 -28 -65
-41 -44 -8 12 -10 12 -19 -1 -9 -13 -11 -13 -20 0 -7 12 -12 12 -22 2 -10 -10
-8 -14 10 -18 12 -4 19 -10 16 -15 -3 -5 -10 -7 -15 -4 -5 4 -9 1 -9 -4 0 -6
5 -11 10 -11 6 0 10 -4 10 -10 0 -5 -7 -10 -15 -10 -8 0 -14 -6 -12 -12 1 -7
-8 -14 -20 -16 -16 -2 -23 -10 -23 -27 0 -13 -6 -25 -14 -27 -12 -3 -12 -5 0
-16 12 -11 14 -10 14 3 0 8 5 15 11 15 6 0 9 7 5 15 -3 8 -1 15 4 15 6 0 10
-7 10 -15 0 -8 5 -15 11 -15 5 0 8 4 5 9 -9 14 5 41 21 41 8 0 12 4 8 9 -3 5
-1 12 5 16 5 3 10 -1 10 -9 0 -9 5 -16 11 -16 7 0 9 9 6 23 -6 22 -6 22 14 -2
17 -21 22 -22 29 -11 7 11 3 17 -13 24 -19 8 -20 10 -4 13 9 3 17 9 17 15 0 5
-7 7 -16 4 -11 -4 -8 2 7 19 13 13 34 25 46 25 17 0 21 5 18 20 -2 12 2 23 10
27 8 3 15 11 15 19 0 8 5 14 10 14 15 0 12 -38 -2 -43 -10 -3 -10 -7 1 -20 21
-26 42 -4 34 35 l-6 31 21 -21 c12 -12 22 -31 22 -42 0 -15 7 -20 25 -20 21 0
25 5 25 31 0 16 -4 28 -9 25 -4 -3 -23 6 -41 19 l-34 25 27 0 c15 0 27 -5 27
-12 0 -8 6 -6 17 4 13 14 14 20 4 32 -8 9 -18 12 -25 8 -23 -15 -76 -29 -76
-21 0 5 6 9 14 9 8 0 24 11 37 25 13 13 32 25 42 25 11 0 17 8 17 25 0 20 -5
25 -25 25 -20 0 -25 -5 -25 -25 0 -15 -6 -25 -14 -25 -8 0 -17 -8 -19 -17 -3
-11 -5 -7 -6 10 0 15 4 27 10 27 6 0 3 7 -6 16 -12 13 -18 14 -30 4 -9 -8 -12
-17 -7 -24 5 -6 12 -22 15 -34 5 -23 5 -23 -23 4 -15 16 -26 37 -25 46 3 14
-3 18 -26 18 -24 0 -29 -4 -29 -25z"/>
<path d="M3235 2440 c-4 -7 -3 -16 3 -22 6 -6 8 -17 5 -24 -3 -8 0 -14 6 -14
6 0 12 9 13 20 0 11 1 25 2 32 1 16 -21 22 -29 8z"/>
<path d="M1925 2410 c-3 -4 2 -16 11 -25 22 -21 9 -33 -18 -16 -17 11 -22 11
-29 -1 -12 -18 -11 -24 6 -38 10 -9 15 -9 15 -1 0 6 11 11 25 11 14 0 25 5 25
10 0 6 7 10 15 10 8 0 15 -4 15 -10 0 -5 -3 -10 -7 -9 -17 3 -52 -14 -57 -27
-8 -22 16 -29 31 -8 14 18 14 17 12 -11 -4 -51 1 -85 11 -85 6 0 10 8 10 18 0
10 6 24 12 30 9 9 10 15 2 20 -6 4 -13 17 -16 29 -4 16 -2 20 8 16 8 -3 14
-11 14 -19 0 -17 16 -19 25 -3 4 6 -1 17 -11 25 -18 14 -17 15 14 10 24 -4 34
-2 39 10 7 19 -14 44 -25 28 -11 -17 -49 -23 -49 -8 0 8 9 14 19 14 10 0 18 7
18 15 0 22 -19 18 -39 -7 -18 -22 -41 -18 -41 7 0 15 -27 28 -35 15z"/>
<path d="M660 2396 c0 -7 8 -16 19 -19 14 -3 17 0 14 14 -6 22 -33 26 -33 5z"/>
<path d="M737 2391 c-3 -14 0 -17 14 -14 11 3 19 12 19 19 0 21 -27 17 -33 -5z"/>
<path d="M3200 2384 c0 -8 3 -13 8 -11 4 3 12 -1 19 -8 9 -10 6 -13 -15 -13
-15 0 -30 5 -34 12 -12 19 -32 -9 -20 -29 6 -12 11 -14 16 -6 4 6 19 11 34 11
25 -1 25 -2 10 -14 -17 -13 -25 -36 -12 -36 4 0 13 8 21 18 13 15 14 13 9 -20
-5 -39 8 -58 26 -40 8 8 8 16 1 24 -5 7 -10 24 -11 38 l-1 25 19 -22 c10 -13
21 -23 24 -23 13 0 5 23 -11 36 -16 12 -16 13 9 14 14 0 28 -6 30 -12 3 -9 9
-8 21 4 13 13 14 18 4 26 -8 7 -18 7 -27 2 -8 -5 -18 -7 -22 -4 -4 3 -17 0
-28 -6 -11 -6 -19 -7 -18 -3 3 8 -37 53 -47 53 -3 0 -5 -7 -5 -16z"/>
<path d="M3271 2379 c-11 -19 -11 -21 4 -15 9 3 19 6 21 6 2 0 4 7 4 15 0 21
-13 19 -29 -6z"/>
<path d="M1570 2365 c-16 -19 6 -53 24 -35 5 5 18 10 29 10 11 0 17 5 14 13
-2 6 -10 11 -17 9 -7 -1 -18 2 -25 8 -9 7 -16 6 -25 -5z"/>
<path d="M1736 2371 c-4 -6 -16 -11 -27 -11 -10 0 -19 -4 -19 -10 0 -5 8 -10
18 -10 10 0 23 -5 28 -10 8 -8 15 -6 24 5 11 13 11 19 -2 31 -11 11 -18 12
-22 5z"/>
<path d="M2203 2365 c-17 -19 4 -35 40 -28 31 6 37 23 7 23 -11 0 -20 5 -20
10 0 14 -13 12 -27 -5z"/>
<path d="M678 2333 c-21 -5 -24 -33 -4 -33 7 0 16 9 19 20 3 11 4 19 4 19 -1
-1 -10 -3 -19 -6z"/>
<path d="M737 2320 c3 -11 12 -20 19 -20 20 0 17 18 -5 29 -16 9 -18 8 -14 -9z"/>
<path d="M500 2230 c0 -5 6 -10 14 -10 8 0 16 -7 19 -14 4 -10 1 -13 -9 -9
-18 7 -18 -4 0 -22 7 -8 17 -11 21 -7 5 4 5 -1 2 -10 -4 -12 -1 -18 8 -18 9 0
12 6 8 17 -4 11 -3 14 5 9 7 -4 12 -13 12 -20 0 -8 9 -16 20 -19 13 -3 18 -11
15 -25 -3 -16 1 -20 17 -17 14 3 22 -2 25 -15 6 -21 18 -26 28 -11 3 6 -3 15
-14 21 -13 6 -18 18 -16 31 3 17 0 20 -16 16 -13 -3 -22 0 -26 10 -3 8 -17 26
-30 40 -16 15 -23 31 -20 44 3 10 1 19 -4 19 -5 0 -9 -8 -9 -17 -1 -17 -1 -17
-14 0 -14 19 -36 23 -36 7z m140 -120 c0 -5 -5 -10 -11 -10 -5 0 -7 5 -4 10 3
6 8 10 11 10 2 0 4 -4 4 -10z"/>
<path d="M576 2225 c-6 -18 2 -45 15 -45 14 0 11 20 -3 20 -8 1 -6 6 5 14 21
16 22 26 3 26 -8 0 -16 -7 -20 -15z"/>
<path d="M820 2231 c0 -5 7 -11 15 -15 8 -3 15 -10 15 -15 0 -6 -7 -8 -15 -5
-8 4 -15 1 -15 -5 0 -6 8 -11 17 -11 14 0 13 -3 -5 -20 -25 -24 -29 -42 -7
-34 8 4 15 12 15 19 0 7 7 15 15 18 16 7 13 41 -6 63 -13 16 -29 19 -29 5z"/>
<path d="M864 2224 c3 -9 6 -18 6 -20 0 -2 7 -4 15 -4 8 0 15 -4 15 -10 0 -5
-8 -7 -17 -3 -10 3 -15 3 -11 -2 4 -4 3 -16 -3 -26 -6 -12 -6 -19 0 -19 5 0
12 8 14 18 4 14 6 14 12 -5 4 -13 11 -23 16 -23 14 0 11 28 -3 33 -10 4 -9 8
2 16 13 10 13 12 0 21 -13 9 -13 11 0 19 8 6 11 13 7 17 -4 4 -14 -1 -22 -12
-13 -17 -14 -17 -15 -1 0 9 -5 17 -11 17 -6 0 -8 -7 -5 -16z"/>
<path d="M1322 2214 l-23 -24 21 -22 c22 -24 26 -43 10 -53 -7 -4 -7 -11 -2
-18 5 -7 12 -23 15 -36 6 -24 6 -24 -21 4 -15 16 -25 37 -24 47 3 14 -4 18
-27 18 -26 0 -31 -4 -31 -25 0 -18 5 -25 20 -25 11 0 23 -7 26 -15 4 -8 12
-15 19 -15 7 0 15 -6 18 -14 4 -10 0 -12 -16 -8 -12 2 -28 9 -34 15 -9 6 -13
6 -13 -2 0 -6 -12 -11 -26 -11 -14 0 -23 4 -19 10 3 6 -1 10 -9 10 -9 0 -15 3
-13 8 1 4 -1 8 -5 10 -5 1 -8 0 -8 -3 1 -3 -6 -12 -14 -20 -18 -18 -46 -20
-46 -3 0 9 -3 9 -12 0 -7 -7 -23 -12 -38 -12 -23 1 -24 2 -7 14 19 14 23 36 7
36 -5 0 -10 -6 -10 -14 0 -25 -33 -29 -52 -7 -9 12 -19 21 -22 21 -13 0 -5
-23 12 -36 16 -13 16 -13 -3 -14 -12 0 -26 5 -33 12 -9 9 -15 9 -24 0 -16 -16
-52 -16 -42 0 5 7 3 8 -5 4 -8 -5 -11 -3 -9 7 2 9 -1 16 -7 16 -5 1 -10 -7
-10 -16 0 -9 -7 -18 -15 -20 -13 -4 -13 -3 0 6 8 6 11 11 5 11 -5 -1 -17 -6
-26 -13 -15 -11 -14 -14 7 -30 13 -10 24 -13 24 -7 0 5 -6 10 -12 11 -7 0 -4
4 7 8 11 5 30 5 41 0 12 -4 25 -5 29 -1 3 3 10 0 14 -7 6 -8 14 -10 22 -5 31
18 128 19 146 0 4 -3 12 -1 19 5 9 7 19 3 39 -16 l26 -27 18 21 c20 23 51 28
51 9 0 -9 3 -9 12 0 15 15 48 16 48 2 0 -5 -6 -10 -14 -10 -8 0 -17 -7 -20
-15 -3 -9 -14 -15 -23 -13 -13 2 -19 -5 -21 -24 -3 -25 0 -28 27 -28 24 0 29
4 26 20 -2 11 2 23 9 27 7 5 18 17 24 28 11 19 11 18 12 -7 0 -15 -5 -30 -10
-33 -7 -4 -7 -11 -2 -18 14 -18 11 -41 -7 -57 -8 -8 -17 -14 -18 -12 -2 1 -2
-1 0 -5 1 -5 5 -7 10 -5 4 1 7 -5 7 -14 0 -8 5 -12 10 -9 6 3 10 -1 10 -9 0
-9 5 -16 11 -16 6 0 8 7 5 16 -3 9 -2 12 5 9 11 -7 39 12 39 26 0 5 -7 9 -16
9 -8 0 -12 5 -9 10 3 6 0 10 -9 10 -14 0 -16 23 -3 36 4 4 4 24 1 43 l-6 36
21 -22 c11 -12 21 -32 21 -43 0 -16 5 -21 23 -18 27 4 36 15 30 38 -3 11 -11
16 -19 13 -8 -3 -25 6 -39 21 -22 24 -22 26 -5 26 10 0 22 -5 26 -11 4 -8 9
-8 17 0 18 18 41 13 61 -14 17 -22 44 -26 31 -4 -4 5 -1 9 5 9 6 0 9 4 6 8 -7
12 26 12 41 0 7 -5 14 -5 18 2 3 5 15 10 26 10 10 0 19 5 19 10 0 6 -9 10 -19
10 -11 0 -23 5 -26 10 -5 8 -11 7 -21 -1 -12 -10 -20 -7 -39 11 l-25 23 -19
-21 c-20 -24 -46 -29 -56 -12 -4 7 -11 7 -18 2 -15 -11 -47 -23 -47 -17 0 9
55 55 66 55 7 0 14 11 16 25 5 22 2 25 -23 25 -24 0 -29 -4 -29 -25 0 -15 -6
-25 -14 -25 -8 0 -16 -8 -18 -17 -3 -10 -5 8 -5 40 -1 31 3 57 8 57 6 0 7 5 4
10 -3 6 1 10 9 10 9 0 16 2 16 5 0 6 -47 55 -52 54 -2 0 -13 -11 -26 -25z m38
-194 c0 -5 -4 -10 -10 -10 -5 0 -10 5 -10 10 0 6 5 10 10 10 6 0 10 -4 10 -10z"/>
<path d="M1813 2226 c5 -13 -20 -45 -30 -38 -1 1 -3 0 -3 -3 0 -3 0 -8 0 -11
0 -4 7 -1 15 6 9 8 15 8 15 2 0 -6 -9 -14 -20 -17 -23 -7 -27 -35 -5 -35 8 0
15 8 15 17 0 15 2 14 15 -3 15 -18 15 -17 12 16 -2 19 -2 27 0 18 2 -9 15 -27
28 -40 14 -13 25 -30 25 -39 0 -16 57 -36 68 -24 3 3 0 5 -6 5 -7 0 -12 12
-12 26 0 23 -3 26 -25 22 -19 -4 -25 -1 -25 12 0 10 -9 20 -20 23 -11 3 -20
11 -20 19 0 10 2 10 8 1 5 -8 13 -9 22 -3 11 7 9 11 -13 19 -15 6 -27 17 -27
26 0 8 -5 15 -11 15 -6 0 -9 -6 -6 -14z m97 -126 c0 -5 -2 -10 -4 -10 -3 0 -8
5 -11 10 -3 6 -1 10 4 10 6 0 11 -4 11 -10z"/>
<path d="M1846 2225 c-4 -10 1 -15 14 -15 11 0 20 7 20 15 0 8 -6 15 -14 15
-8 0 -16 -7 -20 -15z"/>
<path d="M2592 2215 c-22 -26 -30 -51 -12 -40 6 3 10 -1 10 -10 0 -9 5 -13 10
-10 14 9 12 -29 -2 -43 -9 -9 -10 -15 -2 -20 13 -8 15 -42 2 -42 -4 0 -8 7 -8
15 0 8 -7 15 -15 15 -9 0 -15 9 -15 25 0 20 -5 25 -25 25 -21 0 -25 -5 -25
-30 0 -22 4 -28 15 -24 16 7 75 -43 75 -63 0 -12 -11 -16 -26 -10 -4 1 -10 -8
-15 -20 -5 -15 -14 -21 -29 -18 -16 3 -20 -1 -20 -26 0 -24 4 -29 25 -29 20 0
25 5 25 25 0 16 6 25 15 25 8 0 15 7 15 15 0 8 4 15 9 15 9 0 9 -7 1 -45 -1
-5 -1 -12 0 -15 1 -3 3 -17 4 -31 1 -20 -2 -25 -13 -21 -9 3 -12 1 -7 -6 4 -7
1 -12 -9 -12 -9 0 -13 -5 -10 -10 4 -6 11 -8 16 -4 5 3 8 0 7 -8 -2 -7 2 -12
9 -11 7 2 10 -4 7 -12 -4 -8 -1 -15 5 -15 6 0 11 8 11 17 0 9 3 14 6 10 4 -3
13 1 21 9 13 13 13 17 -3 32 -24 21 -28 40 -13 58 9 11 8 18 -1 29 -10 12 -10
19 -2 27 9 9 12 8 12 -5 0 -9 5 -16 12 -14 7 1 14 -9 17 -23 4 -16 14 -26 29
-28 18 -3 22 1 22 26 0 23 -4 30 -17 28 -10 -2 -31 10 -47 25 l-30 29 30 30
c16 16 37 30 47 30 11 0 17 8 17 25 0 20 -5 25 -25 25 -20 0 -25 -5 -25 -25 0
-16 -6 -25 -15 -25 -8 0 -15 -6 -15 -14 0 -8 -4 -17 -8 -20 -11 -7 -10 38 2
46 6 4 5 12 -2 21 -10 11 -9 20 2 41 7 15 18 27 22 26 5 -1 10 4 13 11 2 8 -4
10 -18 6 -19 -5 -20 -3 -9 11 11 13 11 15 -4 9 -12 -4 -15 -2 -11 9 8 22 -11
16 -35 -11z"/>
<path d="M3040 2225 c0 -8 4 -15 9 -15 5 0 13 -10 17 -22 4 -15 1 -25 -12 -35
-9 -7 -14 -16 -10 -20 4 -5 17 3 28 17 20 24 20 24 14 3 -7 -23 9 -33 16 -11
3 8 14 3 30 -13 20 -20 23 -30 16 -43 -9 -15 -7 -17 10 -12 14 5 27 0 42 -16
12 -13 20 -17 18 -9 -2 8 -12 23 -22 35 -13 13 -16 21 -8 24 7 2 12 8 12 14 0
5 -8 7 -18 4 -19 -6 -43 11 -72 49 -14 19 -14 19 3 6 9 -8 21 -11 24 -7 4 4 1
12 -7 17 -11 8 -12 12 -2 16 14 6 16 33 2 33 -5 0 -10 -7 -10 -15 0 -8 -4 -15
-10 -15 -5 0 -10 5 -10 10 0 6 -5 10 -11 10 -5 0 -7 -4 -4 -10 3 -5 -1 -10 -9
-10 -9 0 -16 7 -16 15 0 8 -4 15 -10 15 -5 0 -10 -7 -10 -15z"/>
<path d="M3360 2228 c0 -9 6 -19 13 -22 10 -5 10 -7 0 -12 -18 -8 -16 -27 2
-20 21 8 19 1 -11 -29 -14 -14 -23 -29 -20 -32 3 -4 17 7 31 23 19 22 25 25
25 12 0 -10 5 -18 11 -18 6 0 8 9 3 23 -6 21 -6 21 14 -3 11 -14 23 -22 27
-19 3 4 -6 19 -20 35 -15 16 -24 36 -22 46 6 20 -9 25 -16 6 -3 -9 -10 -7 -21
7 -13 17 -15 18 -16 3z"/>
<path d="M3432 2219 c-10 -16 -10 -24 -1 -35 13 -16 29 -19 29 -4 0 6 -8 10
-17 10 -17 1 -17 1 0 14 17 13 23 36 9 36 -4 0 -13 -9 -20 -21z"/>
<path d="M3221 2204 c-23 -25 -22 -49 1 -26 7 7 16 12 22 12 5 0 1 -6 -9 -14
-18 -13 -18 -15 -2 -30 16 -16 18 -16 33 -1 12 11 13 19 5 29 -8 9 -7 16 2 26
10 10 9 12 -5 7 -12 -4 -15 -2 -11 9 8 22 -9 16 -36 -12z m39 -44 c0 -5 -4
-10 -10 -10 -5 0 -10 5 -10 10 0 6 5 10 10 10 6 0 10 -4 10 -10z"/>
<path d="M1956 2207 c3 -9 13 -17 22 -19 13 -3 12 -5 -6 -10 -12 -3 -20 -2
-17 2 3 5 1 11 -4 14 -5 4 -12 3 -15 -2 -3 -4 9 -21 26 -38 29 -26 31 -27 26
-7 -4 17 -2 20 10 16 11 -5 13 -3 7 7 -6 10 -4 12 8 7 11 -4 17 -1 17 8 0 8
-6 14 -12 13 -7 -2 -12 3 -10 11 3 12 0 12 -12 1 -13 -10 -19 -10 -31 0 -13
11 -14 10 -9 -3z"/>
<path d="M665 2190 c-3 -5 1 -10 10 -10 9 0 13 5 10 10 -3 6 -8 10 -10 10 -2
0 -7 -4 -10 -10z"/>
<path d="M3040 2180 c0 -5 5 -10 10 -10 6 0 10 5 10 10 0 6 -4 10 -10 10 -5 0
-10 -4 -10 -10z"/>
<path d="M3275 2180 c3 -5 10 -10 16 -10 5 0 9 5 9 10 0 6 -7 10 -16 10 -8 0
-12 -4 -9 -10z"/>
<path d="M500 2144 c0 -17 22 -14 28 4 2 7 -3 12 -12 12 -9 0 -16 -7 -16 -16z"/>
<path d="M774 2115 c0 -25 5 -31 22 -31 11 0 21 5 21 12 0 6 -10 10 -21 8 -12
-3 -15 -2 -8 2 6 3 12 10 12 15 0 6 -4 8 -9 5 -5 -4 -11 0 -14 6 -2 7 -4 -1
-3 -17z"/>
<path d="M388 2124 c0 -5 -2 -27 -2 -49 -1 -35 -4 -40 -26 -41 -14 -1 -30 2
-36 7 -7 6 -16 4 -23 -5 -9 -10 -8 -16 3 -25 8 -7 17 -8 20 -3 3 5 17 10 32
10 14 0 30 6 35 13 5 9 9 10 9 2 0 -6 -14 -20 -31 -31 -21 -13 -27 -22 -19
-27 6 -4 17 1 25 11 13 18 14 17 15 -8 0 -15 -5 -30 -11 -34 -8 -5 -6 -10 5
-16 21 -12 41 -1 27 16 -6 7 -9 25 -8 41 2 24 7 30 27 31 14 1 30 -2 37 -8 7
-5 13 -5 17 0 3 5 17 10 30 10 18 0 23 -5 19 -17 -4 -14 -3 -14 6 -1 9 12 11
11 11 -9 0 -20 2 -21 15 -11 8 7 15 18 15 24 0 6 -5 4 -11 -4 -9 -13 -10 -13
-6 0 4 17 46 23 64 8 7 -6 14 -5 18 2 4 6 14 9 24 6 9 -4 5 3 -9 13 -16 13
-29 16 -35 10 -14 -14 -58 -12 -49 3 5 7 3 8 -5 4 -8 -5 -11 -3 -9 7 2 9 -1
16 -7 16 -5 0 -9 -7 -7 -16 2 -10 -1 -12 -9 -7 -7 4 -10 3 -6 -3 4 -6 -4 -10
-18 -10 -14 0 -28 4 -31 9 -4 5 -10 5 -17 0 -7 -6 -23 -9 -37 -8 -19 1 -25 7
-26 26 -1 14 2 30 7 36 6 7 4 16 -6 24 -8 7 -16 9 -17 4z"/>
<path d="M1015 2120 c-4 -6 -2 -17 4 -24 6 -7 9 -21 5 -30 -3 -9 -1 -16 5 -16
6 0 11 11 11 25 0 14 5 25 11 25 6 0 4 7 -5 15 -17 18 -23 19 -31 5z"/>
<path d="M1651 2116 c-8 -9 -8 -16 -2 -20 11 -7 11 -46 -1 -46 -4 0 -8 7 -8
15 0 8 -7 15 -15 15 -22 0 -18 -19 7 -40 19 -15 20 -20 9 -34 -7 -9 -17 -13
-22 -10 -5 3 -9 -4 -9 -15 0 -12 7 -21 15 -21 8 0 15 7 15 15 0 8 4 15 9 15
11 0 9 -19 -3 -38 -4 -7 -2 -19 5 -28 11 -13 14 -13 27 0 11 10 12 19 6 28 -9
12 -11 29 -4 43 3 6 3 44 0 48 -7 10 -7 43 1 53 6 7 5 15 -5 23 -10 9 -16 8
-25 -3z"/>
<path d="M2280 2115 c-6 -8 -7 -16 -2 -19 5 -3 12 -17 14 -30 4 -18 1 -23 -10
-19 -11 5 -13 1 -8 -15 5 -15 1 -25 -13 -34 -24 -15 -28 -38 -6 -38 8 0 15 7
15 15 0 8 5 15 10 15 13 0 13 -33 0 -46 -8 -8 -6 -15 4 -23 13 -11 18 -10 31
2 9 10 11 18 5 22 -5 3 -9 16 -9 28 1 17 2 18 6 5 6 -22 33 -24 33 -2 0 9 -13
21 -30 27 -16 6 -30 15 -30 19 0 4 3 7 8 6 4 -1 19 6 34 16 28 19 29 36 2 36
-8 0 -13 -4 -9 -9 3 -5 1 -12 -5 -16 -13 -8 -13 28 0 41 6 6 3 14 -9 21 -15
10 -22 9 -31 -2z"/>
<path d="M3300 2124 c0 -4 8 -13 18 -20 16 -13 16 -14 0 -8 -12 4 -18 1 -18
-9 0 -8 -3 -17 -7 -20 -5 -2 -1 -1 7 1 8 3 25 5 37 5 24 -1 23 7 -5 40 -15 17
-32 23 -32 11z"/>
<path d="M1968 2115 c-8 -9 3 -45 14 -45 5 0 4 9 -2 20 -6 12 -7 20 -1 20 5 0
12 -5 14 -10 3 -6 4 -5 3 2 -3 13 -19 21 -28 13z"/>
<path d="M2920 2110 c-10 -6 -11 -12 -3 -22 6 -7 10 -24 9 -38 -1 -19 -7 -25
-28 -27 -15 -1 -30 3 -34 8 -4 6 -10 6 -19 -1 -16 -14 -43 -3 -50 21 -8 23
-25 25 -25 2 0 -9 -3 -14 -6 -10 -4 3 -13 -1 -21 -9 -14 -13 -17 -13 -33 1
-12 11 -20 13 -25 6 -3 -6 -15 -11 -26 -11 -10 0 -19 -4 -19 -10 0 -5 8 -10
18 -10 10 0 23 -5 29 -11 8 -8 13 -8 17 0 10 15 35 14 52 -4 8 -8 15 -17 14
-20 0 -8 10 -6 12 3 7 25 52 40 64 21 4 -6 10 -6 17 -1 7 6 23 9 37 8 19 -1
25 -7 26 -26 1 -14 -3 -31 -9 -38 -8 -10 -7 -16 3 -22 22 -14 32 -1 25 32 -5
21 -3 33 6 39 11 6 10 9 -4 15 -17 6 -17 7 0 20 11 8 13 13 6 14 -16 0 -17 32
-3 46 15 15 -11 36 -30 24z"/>
<path d="M3551 2106 c-8 -9 -8 -16 -2 -20 5 -4 9 -19 8 -34 -2 -21 -8 -27 -29
-29 -15 -1 -30 3 -34 8 -4 6 -11 6 -20 -2 -11 -9 -18 -9 -26 -1 -7 7 -17 12
-22 12 -6 0 -4 -5 4 -11 13 -9 13 -10 0 -6 -8 2 -15 11 -15 20 0 8 -4 19 -8
23 -4 4 -7 0 -7 -9 0 -9 -5 -17 -11 -17 -5 0 -7 -5 -4 -10 4 -6 -7 -8 -27 -6
-38 5 -70 -7 -46 -17 8 -2 29 -3 47 -1 19 2 30 0 26 -6 -3 -6 -1 -10 4 -10 6
0 11 -7 11 -17 0 -9 3 -13 7 -9 4 4 8 15 8 23 0 9 7 18 15 20 13 4 13 3 0 -6
-8 -6 -10 -11 -4 -11 5 0 15 5 22 12 8 8 15 8 26 -1 9 -8 16 -8 20 -2 4 5 19
9 33 8 23 -2 28 -8 30 -34 2 -18 -2 -35 -7 -38 -6 -4 -5 -11 2 -19 17 -18 45
8 30 27 -5 7 -9 23 -8 37 1 19 7 25 26 26 14 1 30 -2 36 -7 7 -6 16 -4 23 5 9
10 8 16 -3 25 -9 8 -16 8 -20 2 -4 -5 -19 -9 -34 -8 -21 2 -27 8 -28 27 -1 14
2 30 7 36 6 7 4 16 -5 23 -10 9 -16 8 -25 -3z"/>
<path d="M3235 2101 c-7 -12 12 -24 25 -16 11 7 4 25 -10 25 -5 0 -11 -4 -15
-9z"/>
<path d="M343 2066 c0 -8 8 -17 17 -19 13 -3 16 0 13 14 -6 22 -30 26 -30 5z"/>
<path d="M423 2073 c4 -3 1 -13 -6 -21 -10 -13 -9 -15 6 -9 10 4 21 7 23 7 2
0 4 7 4 15 0 8 -7 15 -17 15 -9 0 -13 -3 -10 -7z"/>
<path d="M740 2065 c0 -8 4 -15 8 -15 5 0 9 7 9 15 0 8 -4 15 -9 15 -4 0 -8
-7 -8 -15z"/>
<path d="M1690 2060 c0 -13 5 -18 15 -14 8 4 15 12 15 20 0 8 -7 14 -15 14 -8
0 -15 -9 -15 -20z"/>
<path d="M2240 2065 c0 -8 7 -15 15 -15 8 0 15 7 15 15 0 8 -7 15 -15 15 -8 0
-15 -7 -15 -15z"/>
<path d="M2436 2061 c-9 -9 -14 -20 -11 -23 10 -9 -30 -5 -42 5 -9 6 -13 6
-13 -2 0 -6 -11 -11 -25 -11 -14 0 -25 -4 -25 -10 0 -5 8 -10 18 -10 10 0 23
-5 29 -11 8 -8 13 -8 17 0 12 18 44 12 51 -9 9 -27 23 -25 47 6 19 23 22 24
38 9 12 -11 20 -13 25 -6 3 6 15 11 26 11 10 0 19 5 19 10 0 6 -9 10 -19 10
-11 0 -23 5 -26 10 -4 7 -11 7 -18 2 -15 -12 -48 -12 -41 0 3 4 -2 8 -11 8 -9
0 -14 4 -10 9 11 18 -13 20 -29 2z"/>
<path d="M1803 2055 c-9 -9 -9 -16 -2 -20 5 -4 7 -15 4 -26 -4 -11 -2 -19 5
-19 6 0 8 -4 5 -10 -9 -14 4 -12 19 3 11 10 14 47 6 67 -1 3 -2 8 -1 13 2 12
-23 7 -36 -8z"/>
<path d="M2134 2054 c3 -8 2 -12 -4 -9 -6 4 -17 0 -25 -9 -19 -19 -19 -30 1
-22 8 3 12 2 9 -4 -4 -6 0 -17 9 -25 19 -19 27 -19 20 0 -4 11 -2 13 9 9 11
-4 15 1 14 23 -2 27 -18 53 -32 53 -4 0 -4 -7 -1 -16z m16 -34 c0 -5 -4 -10
-10 -10 -5 0 -10 5 -10 10 0 6 5 10 10 10 6 0 10 -4 10 -10z"/>
<path d="M2880 2056 c0 -7 8 -16 19 -19 14 -3 17 0 14 14 -6 22 -33 26 -33 5z"/>
<path d="M2960 2055 c0 -8 4 -15 9 -15 5 0 11 7 15 15 3 9 0 15 -9 15 -8 0
-15 -7 -15 -15z"/>
<path d="M3088 2065 c-4 -4 -4 -14 -1 -23 4 -10 2 -13 -6 -8 -6 4 -18 2 -26
-4 -12 -10 -18 -10 -29 -1 -10 9 -16 9 -21 1 -4 -6 -13 -9 -19 -7 -7 3 -19 1
-27 -4 -12 -7 -12 -9 1 -10 8 -1 20 -1 27 0 6 1 14 -3 18 -9 5 -8 11 -7 21 1
11 9 17 9 29 -1 8 -6 20 -8 26 -4 9 5 10 2 6 -9 -3 -9 -2 -19 3 -22 6 -4 10 1
10 9 0 9 5 16 11 16 5 0 7 4 4 10 -4 6 7 8 26 6 18 -2 39 -1 47 1 25 10 -9 22
-46 16 -25 -5 -33 -3 -28 5 4 7 3 12 -3 12 -5 0 -11 7 -13 16 -2 9 -6 13 -10
9z"/>
<path d="M3510 2060 c0 -5 9 -14 19 -19 16 -9 18 -8 14 9 -5 20 -33 29 -33 10z"/>
<path d="M3587 2051 c-3 -14 0 -17 14 -14 22 6 26 33 5 33 -7 0 -16 -8 -19
-19z"/>
<path d="M781 2036 c-8 -10 -8 -16 3 -25 11 -10 14 -7 12 14 -1 29 0 29 -15
11z"/>
<path d="M1736 2041 c-4 -6 -16 -11 -27 -11 -10 0 -19 -4 -19 -10 0 -5 9 -10
19 -10 11 0 23 -5 27 -11 4 -8 9 -8 17 0 6 6 19 11 29 11 10 0 18 5 18 10 0 6
-8 10 -18 10 -10 0 -23 5 -29 11 -8 8 -13 8 -17 0z"/>
<path d="M2048 2036 c-17 -12 -17 -14 1 -30 17 -15 19 -16 25 -1 3 9 3 23 -1
30 -7 11 -11 11 -25 1z m22 -16 c0 -5 -4 -10 -10 -10 -5 0 -10 5 -10 10 0 6 5
10 10 10 6 0 10 -4 10 -10z"/>
<path d="M2210 2042 c0 -7 -9 -12 -20 -12 -11 0 -20 -4 -20 -9 0 -12 44 -19
75 -13 29 5 34 22 7 22 -10 0 -23 5 -30 12 -9 9 -12 9 -12 0z"/>
<path d="M1900 2030 c8 -5 12 -12 8 -15 -3 -4 -15 -1 -27 6 -17 11 -43 7 -30
-5 12 -10 56 -14 69 -6 13 9 13 11 0 20 -8 5 -19 10 -25 10 -5 0 -3 -4 5 -10z"/>
<path d="M870 2011 c0 -5 -3 -16 -6 -25 -3 -9 -1 -16 5 -16 6 0 11 6 11 14 0
8 5 16 12 18 7 3 6 7 -5 11 -9 3 -17 2 -17 -2z"/>
<path d="M1000 2000 c-13 -11 -21 -23 -17 -26 3 -3 15 4 28 17 l22 22 19 -23
c10 -12 22 -20 26 -16 7 8 -33 46 -48 46 -4 0 -17 -9 -30 -20z"/>
<path d="M413 1997 c4 -10 7 -21 7 -23 0 -2 7 -4 15 -4 8 0 15 8 15 17 0 9 -3
13 -7 10 -3 -4 -13 -1 -21 6 -13 10 -15 9 -9 -6z"/>
<path d="M1997 1999 c7 -7 15 -10 18 -7 3 3 -2 9 -12 12 -14 6 -15 5 -6 -5z"/>
<path d="M1690 1978 c0 -10 7 -18 15 -18 8 0 15 8 15 18 0 10 -7 19 -15 19 -8
0 -15 -9 -15 -19z"/>
<path d="M2893 1993 c-17 -6 -16 -33 1 -33 7 0 16 9 19 20 5 20 2 22 -20 13z"/>
<path d="M3528 1992 c-21 -4 -24 -32 -4 -32 8 0 17 7 20 16 8 20 6 21 -16 16z"/>
<path d="M3587 1979 c3 -11 12 -19 19 -19 21 0 17 27 -5 33 -14 3 -17 0 -14
-14z"/>
<path d="M656 1974 c-4 -10 -13 -14 -26 -11 -23 6 -24 0 -7 -28 15 -25 42 -33
33 -10 -3 9 -1 26 5 37 6 11 9 22 6 24 -2 3 -7 -3 -11 -12z"/>
<path d="M740 1984 c0 -5 9 -15 19 -21 13 -8 18 -19 14 -35 -4 -18 -3 -20 6
-8 8 11 11 12 11 2 0 -7 5 -10 10 -7 6 3 13 -1 16 -10 11 -26 55 -44 81 -32
13 6 23 16 23 24 0 18 -10 16 -26 -4 -13 -17 -13 -17 -14 0 0 9 -5 17 -11 17
-6 0 -8 -7 -5 -16 4 -10 2 -14 -6 -11 -7 2 -12 10 -10 16 1 6 -4 11 -11 11 -7
0 -18 9 -25 21 -8 12 -9 18 -3 14 6 -3 11 1 11 10 0 12 -4 14 -17 6 -14 -7
-24 -4 -40 11 -13 12 -23 17 -23 12z"/>
<path d="M1020 1980 c0 -5 5 -10 10 -10 6 0 10 5 10 10 0 6 -4 10 -10 10 -5 0
-10 -4 -10 -10z"/>
<path d="M2022 1974 c-11 -12 -10 -14 3 -14 10 0 15 -9 15 -27 0 -14 3 -23 6
-20 10 9 46 -12 39 -24 -4 -5 1 -9 9 -9 9 0 16 -4 16 -10 0 -5 -4 -10 -10 -10
-5 0 -10 -5 -10 -11 0 -6 7 -8 16 -5 8 3 12 2 9 -4 -3 -6 -13 -10 -20 -10 -9
0 -12 -6 -9 -15 4 -8 13 -15 21 -15 8 0 12 4 8 9 -3 5 -1 12 5 16 5 3 10 -1
10 -9 0 -9 5 -16 11 -16 7 0 9 9 6 22 -6 20 -4 19 20 -6 14 -15 26 -39 26 -52
0 -17 5 -24 19 -24 28 0 70 -43 62 -63 -3 -9 -12 -17 -20 -17 -8 0 -14 -7 -14
-15 0 -9 -9 -15 -23 -15 -17 0 -23 -6 -25 -25 -1 -21 2 -25 28 -25 22 0 28 4
25 18 -1 9 10 30 25 46 28 27 28 27 23 4 -3 -12 -10 -28 -15 -34 -5 -7 -2 -16
7 -24 13 -11 19 -10 33 3 10 11 12 17 4 17 -7 0 -11 12 -11 28 1 15 3 20 6 11
2 -10 13 -19 23 -22 13 -3 17 -11 13 -26 -4 -17 -1 -21 21 -21 21 0 26 5 26
25 0 17 -6 25 -17 25 -10 0 -29 12 -42 25 -13 14 -29 25 -37 25 -8 0 -14 5
-14 11 0 5 4 8 8 5 5 -3 20 6 35 20 14 13 35 24 47 24 16 0 20 6 20 30 0 25
-4 30 -25 30 -20 0 -25 -5 -25 -23 0 -13 -10 -32 -22 -43 l-21 -19 6 30 c8 43
-6 64 -27 42 -10 -10 -12 -18 -6 -22 11 -7 14 -45 4 -45 -15 0 -42 43 -39 61
3 15 -2 19 -21 19 -15 0 -24 6 -24 15 0 8 -6 15 -14 15 -8 0 -18 5 -21 10 -4
6 -3 10 2 9 20 -4 27 2 13 12 -11 8 -12 12 -2 16 17 7 15 33 -4 33 -8 0 -13
-4 -9 -9 3 -5 1 -12 -5 -16 -5 -3 -10 1 -10 9 0 9 -4 16 -10 16 -5 0 -10 -4
-10 -10 0 -5 -5 -10 -11 -10 -5 0 -7 5 -4 10 3 6 0 10 -8 10 -16 0 -30 27 -21
41 3 5 -6 9 -20 9 -13 0 -26 6 -28 14 -3 12 -5 12 -16 0z m48 -34 c0 -5 -4
-10 -10 -10 -5 0 -10 5 -10 10 0 6 5 10 10 10 6 0 10 -4 10 -10z"/>
<path d="M2960 1976 c0 -9 7 -16 16 -16 17 0 14 22 -4 28 -7 2 -12 -3 -12 -12z"/>
<path d="M3208 1983 c7 -3 16 -2 19 1 4 3 -2 6 -13 5 -11 0 -14 -3 -6 -6z"/>
<path d="M3280 1980 c8 -5 11 -10 5 -10 -5 0 -2 -5 8 -11 9 -6 15 -14 12 -20
-4 -5 -2 -9 4 -9 18 0 23 20 7 26 -9 3 -16 12 -16 20 0 8 -8 14 -17 14 -15 0
-16 -2 -3 -10z"/>
<path d="M1891 1962 c-6 -2 -11 -15 -11 -28 0 -14 -6 -24 -14 -24 -8 0 -16 -7
-20 -15 -4 -10 1 -15 14 -15 11 0 20 7 20 15 0 8 5 16 10 16 6 1 16 2 23 3 6
0 13 11 15 23 2 12 11 24 20 26 9 3 3 5 -14 4 -17 -1 -36 -3 -43 -5z m19 -22
c0 -5 -5 -10 -11 -10 -5 0 -7 5 -4 10 3 6 8 10 11 10 2 0 4 -4 4 -10z"/>
<path d="M1969 1954 c-12 -16 -12 -17 4 -11 9 3 17 2 17 -3 0 -6 -4 -10 -10
-10 -5 0 -7 -6 -4 -13 3 -8 -7 -25 -21 -39 -25 -26 -25 -27 -7 -40 15 -10 20
-25 20 -65 0 -48 -2 -51 -16 -36 -11 11 -17 12 -20 4 -2 -7 4 -19 14 -26 18
-13 17 -14 -8 -15 -16 0 -28 5 -28 12 0 8 -6 6 -17 -4 -14 -14 -14 -20 -3 -33
9 -11 16 -13 24 -5 5 5 18 10 27 10 10 0 25 7 33 16 12 12 16 12 16 2 0 -7
-13 -19 -29 -26 -35 -16 -49 -42 -21 -42 10 0 21 8 23 18 7 22 6 -54 0 -90 -2
-15 -8 -27 -11 -27 -22 3 -22 -4 2 -27 28 -29 32 -39 16 -49 -5 -3 -7 -20 -5
-38 3 -18 3 -26 -1 -19 -8 17 -34 15 -34 -2 0 -8 8 -17 18 -19 10 -3 6 -5 -10
-6 -16 0 -28 4 -28 11 0 6 -8 4 -19 -6 -18 -16 -20 -16 -45 9 -24 24 -28 25
-42 11 -8 -9 -12 -16 -7 -16 4 0 0 -5 -9 -11 -17 -9 -16 -12 7 -34 13 -14 30
-25 36 -25 7 0 10 3 6 6 -9 9 19 34 37 34 8 0 18 -5 21 -10 5 -8 11 -7 20 0 8
7 18 9 23 6 5 -3 19 4 30 15 18 16 22 17 22 4 0 -8 -6 -15 -14 -15 -8 0 -24
-11 -37 -25 -13 -13 -31 -25 -40 -25 -38 0 -28 -54 9 -56 20 -1 23 2 19 23 -3
19 0 27 14 30 10 3 20 12 22 22 3 9 5 4 6 -11 0 -16 -4 -28 -11 -28 -9 0 -9
-3 0 -12 18 -18 15 -38 -10 -60 l-22 -19 27 -25 27 -25 26 26 26 26 -21 18
c-23 20 -27 46 -11 56 7 4 7 11 2 18 -5 7 -12 23 -15 36 -6 24 -6 24 21 -4 15
-16 27 -39 27 -50 0 -19 7 -21 45 -16 6 0 10 12 10 26 0 20 -5 25 -25 25 -16
0 -25 6 -25 15 0 8 -6 15 -14 15 -8 0 -16 6 -19 14 -4 10 0 12 16 8 12 -3 25
-10 29 -16 5 -8 11 -7 20 2 14 14 52 16 43 2 -3 -5 1 -10 9 -10 9 0 15 -3 14
-7 -6 -18 16 -16 26 2 6 11 15 23 20 26 10 8 -34 60 -46 53 -4 -3 -6 -10 -2
-15 3 -5 0 -8 -8 -7 -7 2 -12 -2 -11 -7 2 -13 -35 -17 -42 -5 -3 5 -20 7 -37
3 l-31 -6 21 21 c12 12 31 22 42 22 16 0 20 7 20 30 0 25 -4 30 -25 30 -14 0
-25 -3 -26 -7 -3 -28 -9 -45 -22 -58 -21 -20 -27 -19 -27 5 0 11 5 20 10 20 7
0 7 6 0 19 -10 20 10 77 23 64 4 -3 7 1 7 11 0 9 -4 14 -10 11 -5 -3 -10 1
-10 10 0 9 -4 13 -10 10 -5 -3 -10 3 -10 14 0 11 5 23 10 26 7 4 7 11 2 18 -5
7 -12 23 -15 37 l-6 25 19 -22 c10 -13 23 -23 29 -23 20 0 12 27 -11 38 -23
11 -23 11 4 11 14 1 28 -5 31 -11 3 -10 7 -10 17 -2 16 15 3 59 -13 46 -7 -5
-23 -12 -37 -15 l-25 -6 23 19 c26 21 28 30 7 30 -8 0 -15 -4 -15 -10 0 -5 -4
-10 -10 -10 -13 0 -13 37 0 45 7 4 7 11 2 18 -5 7 -12 24 -16 39 -5 20 -11 26
-23 21 -11 -4 -14 -3 -9 5 10 17 36 15 36 -2 0 -8 5 -18 12 -22 8 -5 9 -2 5 9
-4 10 -2 16 5 14 6 -1 13 4 16 12 3 8 0 11 -7 7 -6 -4 -11 -2 -11 4 0 7 -9 9
-22 5 -13 -4 -18 -3 -12 2 16 11 26 65 16 81 -7 10 -12 9 -23 -4z"/>
<path d="M3187 1963 c-10 -3 -14 -9 -10 -16 4 -7 -1 -6 -10 2 -29 23 -31 4 -2
-24 14 -15 29 -24 33 -21 3 4 0 11 -8 16 -11 7 -12 10 -2 10 7 0 11 4 7 9 -3
6 3 14 12 20 19 11 11 12 -20 4z"/>
<path d="M700 1945 c-9 -10 -9 -15 -1 -15 17 0 8 -65 -9 -66 -8 -1 -19 -2 -24
-3 -5 0 -3 -8 4 -16 7 -9 19 -14 25 -11 15 5 17 -41 3 -50 -5 -4 -5 -10 0 -17
6 -7 9 -23 8 -37 -1 -28 -37 -40 -60 -21 -10 8 -16 8 -25 -3 -9 -10 -8 -16 3
-25 9 -8 16 -8 20 -2 4 5 19 9 34 8 23 -2 27 -7 29 -35 1 -17 -3 -35 -8 -38
-6 -3 -5 -11 2 -20 18 -21 28 1 22 45 -4 32 -3 34 10 19 16 -20 37 -24 37 -8
0 6 -3 10 -7 10 -5 0 -19 10 -33 21 -21 17 -22 19 -3 10 26 -13 33 -14 33 -2
0 5 -9 11 -20 14 -22 6 -28 51 -10 62 7 4 7 12 2 18 -9 13 -14 63 -5 54 5 -6
33 17 33 27 0 3 -12 1 -27 -4 -25 -9 -26 -8 -10 4 19 15 24 31 5 20 -8 -5 -9
3 -5 29 6 40 -4 55 -23 32z"/>
<path d="M1014 1949 c-10 -17 13 -36 27 -22 12 12 4 33 -11 33 -5 0 -12 -5
-16 -11z"/>
<path d="M3323 1934 c-28 -30 -29 -38 -4 -25 14 8 23 5 41 -16 18 -20 19 -27
9 -34 -12 -8 -11 -11 1 -20 11 -8 12 -12 3 -16 -15 -6 -17 -33 -3 -33 6 0 10
7 10 15 0 8 5 15 10 15 6 0 10 -4 10 -10 0 -5 4 -10 9 -10 5 0 7 10 4 23 -4
20 -2 19 14 -5 10 -16 21 -28 25 -28 14 0 8 23 -9 36 -17 13 -17 13 0 14 9 0
17 5 17 11 0 6 -7 9 -15 5 -21 -8 -19 11 2 23 10 5 14 13 10 18 -5 4 -17 -2
-27 -15 l-19 -23 -36 36 c-31 29 -35 38 -25 50 21 25 -3 15 -27 -11z"/>
<path d="M3236 1942 c-3 -5 -1 -14 3 -20 6 -10 10 -10 20 1 9 12 8 16 -3 20
-9 4 -17 3 -20 -1z"/>
<path d="M592 1910 c-27 -26 -29 -44 -2 -28 19 12 34 37 27 44 -2 2 -13 -5
-25 -16z"/>
<path d="M3126 1895 c-22 -29 -51 -32 -65 -8 -5 10 -13 15 -17 11 -4 -4 4 -16
16 -26 l23 -19 -21 -21 c-23 -23 -29 -42 -12 -42 6 0 10 7 10 15 0 8 7 15 16
15 8 0 12 -4 9 -10 -3 -5 -1 -10 4 -10 6 0 11 5 11 10 0 6 5 10 10 10 6 0 10
-7 10 -15 0 -8 5 -15 10 -15 14 0 12 27 -2 33 -10 4 -9 8 2 16 13 10 13 12 0
21 -9 6 -11 13 -5 18 18 13 38 42 29 42 -5 0 -18 -11 -28 -25z m-6 -45 c0 -5
-4 -10 -10 -10 -5 0 -10 5 -10 10 0 6 5 10 10 10 6 0 10 -4 10 -10z"/>
<path d="M500 1902 c0 -4 13 -15 29 -25 28 -16 29 -16 34 3 3 11 1 23 -4 26
-5 3 -9 -3 -9 -13 -1 -17 -1 -17 -14 0 -13 17 -36 23 -36 9z"/>
<path d="M1770 1896 c0 -14 24 -29 33 -19 3 3 3 11 0 19 -7 18 -33 18 -33 0z"/>
<path d="M1819 1905 c-1 -3 -2 -9 -3 -14 0 -5 -4 -12 -8 -16 -4 -4 -4 -13 -2
-20 3 -7 -4 -16 -15 -20 -12 -3 -21 -13 -21 -21 0 -8 -10 -14 -25 -14 -20 0
-25 -5 -25 -25 0 -14 -7 -28 -15 -31 -8 -4 -15 -12 -15 -18 0 -7 7 -13 15 -13
8 0 15 6 15 14 0 11 19 18 43 14 4 0 7 12 7 29 0 20 5 30 15 30 8 0 15 7 15
15 0 8 4 15 10 15 5 0 7 -7 3 -16 -4 -12 -2 -15 8 -12 8 3 13 12 11 19 -1 9 3
8 11 -3 17 -21 37 -23 37 -4 0 7 -10 16 -21 19 -15 4 -20 11 -16 21 4 10 1 16
-7 16 -9 0 -12 7 -9 20 3 11 3 20 -1 20 -3 0 -7 -2 -7 -5z"/>
<path d="M3080 1890 c0 -5 5 -10 10 -10 6 0 10 5 10 10 0 6 -4 10 -10 10 -5 0
-10 -4 -10 -10z"/>
<path d="M3240 1884 c0 -8 -4 -13 -9 -10 -13 9 -8 -47 6 -61 18 -19 25 -16 19
10 -3 12 -3 16 0 10 3 -7 10 -13 16 -13 6 0 3 11 -6 24 -9 14 -13 32 -10 40 3
9 1 16 -5 16 -6 0 -11 -7 -11 -16z"/>
<path d="M3400 1890 c0 -5 5 -10 10 -10 6 0 10 5 10 10 0 6 -4 10 -10 10 -5 0
-10 -4 -10 -10z"/>
<path d="M3267 1873 c-3 -3 1 -12 9 -20 8 -9 18 -13 21 -10 3 3 -1 13 -10 21
-8 8 -17 12 -20 9z"/>
<path d="M505 1860 c-6 -10 -4 -11 25 -14 8 0 15 -10 15 -21 0 -11 5 -19 10
-17 6 2 9 10 7 19 -2 8 1 12 7 8 6 -3 11 -1 11 4 0 6 4 10 9 9 8 -3 11 2 11
17 0 2 -12 0 -26 -5 -17 -7 -32 -7 -44 0 -13 7 -21 7 -25 0z"/>
<path d="M825 1860 c-4 -6 2 -10 12 -10 17 -1 17 -1 1 -14 -22 -16 -23 -36 -2
-36 8 0 13 4 10 9 -3 5 2 15 11 22 15 12 16 12 10 -3 -3 -10 -2 -20 3 -23 6
-4 10 -1 10 6 0 6 10 20 22 30 24 22 19 36 -8 21 -11 -6 -27 -7 -41 -1 -13 5
-25 4 -28 -1z"/>
<path d="M1776 1861 c-4 -5 -2 -12 3 -15 5 -4 12 -2 15 3 4 5 2 12 -3 15 -5 4
-12 2 -15 -3z"/>
<path d="M1855 1859 c-10 -15 3 -25 16 -12 7 7 7 13 1 17 -6 3 -14 1 -17 -5z"/>
<path d="M3040 1850 c0 -5 5 -10 10 -10 6 0 10 5 10 10 0 6 -4 10 -10 10 -5 0
-10 -4 -10 -10z"/>
<path d="M3200 1850 c0 -5 5 -10 10 -10 6 0 10 5 10 10 0 6 -4 10 -10 10 -5 0
-10 -4 -10 -10z"/>
<path d="M518 1833 c-21 -5 -24 -33 -4 -33 7 0 16 9 19 20 3 11 4 19 4 19 -1
-1 -10 -3 -19 -6z"/>
<path d="M580 1815 c0 -8 7 -15 15 -15 8 0 15 7 15 15 0 8 -7 15 -15 15 -8 0
-15 -7 -15 -15z"/>
<path d="M900 1815 c0 -8 5 -15 10 -15 6 0 10 7 10 15 0 8 -4 15 -10 15 -5 0
-10 -7 -10 -15z"/>
<path d="M1560 1769 c0 -23 4 -30 18 -27 10 1 31 -9 47 -24 l29 -27 -29 -30
c-17 -17 -37 -31 -45 -31 -9 0 -16 -10 -18 -25 -1 -21 2 -24 23 -23 17 2 25 8
25 20 0 10 7 21 15 24 8 4 15 12 15 20 0 8 4 14 8 14 12 0 12 -39 1 -46 -6 -4
-6 -11 2 -20 9 -11 15 -12 25 -3 10 8 11 16 5 23 -8 10 -8 43 -1 54 3 3 3 41
0 47 -7 14 -5 31 3 43 6 8 5 17 -3 28 -12 13 -15 13 -29 -2 -12 -12 -13 -18
-3 -21 11 -4 18 -43 7 -43 -15 0 -45 38 -45 57 0 18 -6 23 -25 23 -21 0 -25
-5 -25 -31z"/>
<path d="M3237 1776 c-7 -19 18 -42 28 -26 8 13 -1 40 -14 40 -5 0 -11 -6 -14
-14z"/>
<path d="M660 1735 c0 -8 2 -15 4 -15 2 0 11 -3 19 -6 12 -4 14 0 10 15 -6 24
-33 29 -33 6z"/>
<path d="M738 1732 c-4 -15 -1 -18 14 -14 19 5 20 23 1 29 -6 2 -13 -5 -15
-15z"/>
<path d="M3200 1729 c0 -7 8 -18 18 -25 16 -12 15 -13 -8 -14 -15 0 -31 5 -37
11 -7 7 -12 6 -16 -4 -7 -18 10 -46 21 -32 4 6 20 12 36 13 l28 2 -23 -19
c-13 -11 -21 -22 -17 -26 8 -8 54 36 50 48 -1 4 6 4 15 -1 10 -5 24 -7 32 -4
7 2 17 -2 22 -9 13 -22 34 4 21 26 -6 12 -11 14 -16 6 -4 -6 -19 -11 -34 -11
-25 1 -25 2 -9 14 16 13 24 36 11 36 -3 0 -14 -10 -25 -22 l-19 -23 -19 23
c-21 24 -31 28 -31 11z"/>
<path d="M3240 1720 c0 -5 5 -10 10 -10 6 0 10 5 10 10 0 6 -4 10 -10 10 -5 0
-10 -4 -10 -10z"/>
<path d="M782 1708 c-7 -9 -7 -18 2 -30 11 -15 13 -15 24 2 14 23 -9 48 -26
28z"/>
<path d="M1570 1705 c-10 -12 -10 -18 0 -30 9 -11 16 -13 24 -5 5 5 18 10 28
10 10 0 18 5 18 10 0 6 -8 10 -18 10 -10 0 -23 5 -28 10 -8 8 -15 6 -24 -5z"/>
<path d="M1736 1711 c-4 -6 -16 -11 -27 -11 -10 0 -19 -4 -19 -10 0 -5 8 -10
18 -10 10 0 23 -5 28 -10 8 -8 15 -6 24 5 11 13 11 19 -2 31 -11 11 -18 12
-22 5z"/>
<path d="M2205 1700 c-8 -24 14 -56 22 -32 3 6 13 12 24 12 10 0 19 5 19 10 0
6 -8 10 -18 10 -10 0 -23 5 -29 11 -8 8 -13 5 -18 -11z"/>
<path d="M2370 1712 c0 -7 -11 -12 -25 -12 -14 0 -25 -4 -25 -10 0 -5 8 -10
18 -10 10 0 23 -5 28 -10 8 -8 15 -6 24 5 11 13 11 19 -3 33 -11 10 -17 12
-17 4z"/>
<path d="M677 1666 c-21 -16 -22 -26 -3 -26 8 0 17 7 20 16 9 23 4 25 -17 10z"/>
<path d="M1690 1650 c0 -11 7 -20 15 -20 10 0 15 -10 15 -27 0 -23 4 -28 25
-28 21 0 25 5 25 32 0 25 -3 31 -16 26 -9 -3 -23 3 -35 16 -25 26 -29 26 -29
1z"/>
<path d="M3272 1650 c13 -20 28 -27 28 -12 0 10 -22 32 -32 32 -5 0 -3 -9 4
-20z"/>
<path d="M3237 1623 c-6 -33 8 -52 25 -35 9 9 9 15 1 23 -6 6 -9 18 -6 25 3 8
1 14 -5 14 -5 0 -12 -12 -15 -27z"/>
<path d="M2410 1565 c0 -8 7 -15 15 -15 8 0 15 -5 15 -12 0 -6 3 -9 6 -6 7 7
-18 48 -28 48 -5 0 -8 -7 -8 -15z"/>
<path d="M2485 1558 c-6 -20 -8 -20 -12 -5 -2 9 -8 17 -13 17 -4 0 -6 -8 -3
-19 3 -10 0 -22 -6 -25 -6 -4 -11 -15 -11 -24 0 -13 2 -13 15 4 14 18 15 17 5
-8 -5 -16 -5 -30 0 -33 5 -3 11 5 13 17 l4 23 8 -22 c4 -13 14 -23 21 -23 13
0 19 -18 15 -48 -2 -10 2 -11 18 -2 23 12 47 50 32 50 -5 0 -12 -6 -14 -12 -4
-10 -6 -10 -6 0 -1 7 -6 10 -12 7 -6 -4 -13 2 -16 14 -3 12 -12 21 -19 21 -8
0 -14 5 -14 10 0 6 5 10 10 10 6 0 10 5 10 11 0 8 -6 7 -17 -2 -15 -12 -16
-12 -10 4 4 10 7 21 7 23 0 2 7 4 15 4 8 0 15 7 15 15 0 23 -27 18 -35 -7z"/>
<path d="M2740 1565 c0 -8 7 -15 15 -15 18 0 20 -16 3 -24 -10 -5 -10 -7 0
-12 16 -8 15 -24 -2 -24 -7 0 -16 -9 -19 -20 -3 -13 -11 -18 -25 -15 -22 4
-23 -8 -4 -40 8 -14 12 -16 12 -5 0 13 1 13 10 0 8 -11 9 -8 6 14 -4 21 -1 29
14 33 10 3 21 15 25 26 6 19 8 20 12 5 7 -26 22 -22 16 5 -4 18 -3 19 7 7 9
-12 10 -11 5 7 -4 15 1 26 16 37 13 9 20 19 16 22 -4 4 -17 -4 -28 -17 -22
-24 -22 -24 -16 -1 6 26 -9 31 -16 5 -4 -15 -6 -15 -12 5 -8 25 -35 30 -35 7z
m55 -45 c3 -5 2 -10 -4 -10 -5 0 -13 5 -16 10 -3 6 -2 10 4 10 5 0 13 -4 16
-10z"/>
<path d="M1110 1562 c0 -4 9 -13 19 -19 16 -10 18 -9 14 8 -5 18 -33 28 -33
11z"/>
<path d="M1158 1548 c-2 -15 -10 -23 -23 -23 -11 0 -18 -5 -15 -10 6 -12 32
-7 42 8 6 9 8 9 8 0 0 -6 -13 -20 -30 -30 -32 -19 -39 -33 -15 -33 8 0 15 7
15 15 0 8 5 15 10 15 6 0 10 -7 10 -15 0 -8 4 -15 10 -15 5 0 9 10 7 22 -1 16
5 23 23 28 l25 7 -25 4 c-15 2 -25 11 -25 21 0 27 -13 32 -17 6z"/>
<path d="M1192 1550 c-7 -11 -10 -20 -6 -20 7 0 34 27 34 34 0 13 -16 5 -28
-14z"/>
<path d="M1328 1565 c-2 -3 -3 -32 -1 -64 2 -36 -1 -62 -7 -66 -8 -5 -8 -11 1
-21 9 -11 15 -12 25 -3 11 9 11 15 3 25 -16 20 -7 69 13 69 22 0 19 20 -2 20
-8 0 -15 8 -15 17 0 19 -9 31 -17 23z"/>
<path d="M1450 1562 c0 -4 9 -13 20 -20 19 -12 20 -11 8 8 -13 20 -28 27 -28
12z"/>
<path d="M1500 1565 c-1 -5 -3 -17 -4 -25 0 -8 -10 -15 -21 -15 -11 0 -19 -4
-17 -10 1 -5 22 -9 47 -9 25 0 44 4 43 9 -2 5 -10 10 -18 10 -8 0 -17 11 -21
25 -4 14 -8 21 -9 15z"/>
<path d="M1530 1550 c-10 -19 -10 -20 9 -8 22 13 28 28 11 28 -5 0 -14 -9 -20
-20z"/>
<path d="M2625 1560 c3 -5 8 -10 11 -10 2 0 4 5 4 10 0 6 -5 10 -11 10 -5 0
-7 -4 -4 -10z"/>
<path d="M2609 1532 c7 -13 6 -23 -1 -30 -7 -7 -8 -12 -2 -12 5 0 16 9 24 20
10 14 17 17 27 8 19 -15 28 -3 12 15 -12 13 -16 13 -31 0 -16 -15 -18 -15 -18
0 0 10 -5 17 -10 17 -7 0 -7 -6 -1 -18z"/>
<path d="M1285 1520 c-8 -13 9 -20 24 -11 10 6 9 10 -3 14 -8 3 -18 2 -21 -3z"/>
<path d="M2410 1520 c0 -5 5 -10 10 -10 6 0 10 5 10 10 0 6 -4 10 -10 10 -5 0
-10 -4 -10 -10z"/>
<path d="M2580 1520 c0 -5 5 -10 10 -10 6 0 10 5 10 10 0 6 -4 10 -10 10 -5 0
-10 -4 -10 -10z"/>
<path d="M2830 1520 c0 -5 5 -10 10 -10 6 0 10 5 10 10 0 6 -4 10 -10 10 -5 0
-10 -4 -10 -10z"/>
<path d="M2630 1490 c-12 -23 -5 -26 16 -6 16 17 18 26 4 26 -5 0 -14 -9 -20
-20z"/>
<path d="M1180 1494 c0 -3 14 -19 31 -35 17 -16 27 -29 22 -29 -5 0 -10 -7
-10 -15 0 -8 5 -15 11 -14 29 3 46 -2 46 -16 0 -8 7 -15 15 -15 13 0 12 4 -4
22 -11 11 -17 26 -14 31 4 6 0 8 -10 4 -10 -3 -17 -2 -17 3 0 6 7 10 15 10 8
0 15 4 15 9 0 5 -9 7 -21 4 -15 -4 -28 2 -44 21 -21 25 -35 33 -35 20z"/>
<path d="M1457 1474 c-18 -18 -34 -25 -47 -21 -11 3 -20 1 -20 -4 0 -5 6 -9
14 -9 8 0 18 -9 21 -20 7 -23 22 -27 22 -5 0 8 -5 15 -10 15 -6 0 -1 8 9 18
24 21 48 52 42 52 -3 0 -17 -12 -31 -26z"/>
<path d="M1497 1486 c-4 -10 -5 -21 -2 -24 9 -9 17 6 13 25 -3 17 -4 17 -11
-1z"/>
<path d="M2410 1475 c0 -8 5 -15 10 -15 6 0 10 7 10 15 0 8 -4 15 -10 15 -5 0
-10 -7 -10 -15z"/>
<path d="M2830 1475 c0 -8 5 -15 10 -15 6 0 10 7 10 15 0 8 -4 15 -10 15 -5 0
-10 -7 -10 -15z"/>
<path d="M1535 1470 c3 -5 10 -10 16 -10 5 0 9 5 9 10 0 6 -7 10 -16 10 -8 0
-12 -4 -9 -10z"/>
<path d="M1880 1440 c0 -25 4 -30 25 -30 21 0 25 5 25 30 0 25 -4 30 -25 30
-21 0 -25 -5 -25 -30z"/>
<path d="M2617 1429 c8 -8 16 -8 30 0 16 9 14 10 -11 11 -22 0 -27 -3 -19 -11z"/>
<path d="M1395 1421 c3 -6 -3 -15 -12 -21 -15 -9 -14 -10 7 -4 14 3 27 8 29
10 6 5 -10 24 -20 24 -6 0 -8 -4 -4 -9z"/>
<path d="M2560 1414 c0 -11 29 -34 34 -26 2 4 -4 13 -15 20 -10 7 -19 10 -19
6z"/>
<path d="M2678 1406 c-10 -7 -15 -16 -12 -19 4 -3 13 1 21 9 20 19 13 26 -9
10z"/>
<path d="M2453 1389 c-7 -7 -13 -18 -13 -23 0 -6 5 -4 11 4 9 13 10 13 6 0 -2
-8 -12 -15 -23 -15 -10 0 -17 -5 -15 -10 2 -6 13 -8 24 -7 16 3 19 -1 14 -17
-3 -12 -1 -23 3 -26 5 -3 10 5 12 17 2 17 10 23 28 24 14 1 30 -2 35 -6 6 -5
18 -3 27 4 15 11 15 13 -2 24 -16 10 -18 9 -14 -3 5 -11 2 -13 -11 -9 -9 4
-26 7 -38 8 -13 1 -23 9 -27 24 -4 18 -7 21 -17 11z"/>
<path d="M2790 1385 c0 -8 -5 -15 -11 -15 -5 0 -8 -4 -4 -9 7 -12 -36 -11 -51
1 -18 13 -38 -17 -20 -31 8 -7 17 -8 20 -3 8 13 60 12 68 -2 6 -8 8 -7 8 2 0
6 7 12 17 12 13 0 11 -4 -7 -20 -13 -11 -21 -22 -18 -25 2 -3 18 9 34 26 l29
31 -32 -4 c-29 -4 -31 -3 -22 20 11 29 11 32 -1 32 -5 0 -10 -7 -10 -15z m-65
-34 c3 -5 2 -12 -3 -15 -5 -3 -9 1 -9 9 0 17 3 19 12 6z"/>
<path d="M1160 1374 c0 -9 -5 -12 -12 -8 -8 5 -9 2 -5 -10 5 -14 3 -17 -8 -12
-8 3 -15 1 -15 -4 0 -6 9 -10 21 -10 14 0 19 -5 17 -18 -3 -17 1 -22 17 -22 2
0 0 11 -5 25 -6 16 -6 25 0 25 6 0 10 -7 10 -15 0 -8 5 -15 11 -15 5 0 7 5 4
10 -3 6 1 10 9 10 9 0 16 5 16 11 0 6 -9 8 -20 4 -16 -5 -19 -3 -14 12 5 15 4
16 -6 3 -10 -13 -11 -11 -7 8 3 12 1 22 -4 22 -5 0 -9 -7 -9 -16z"/>
<path d="M1497 1368 c3 -16 2 -19 -5 -10 -6 9 -9 4 -10 -18 -1 -30 0 -31 14
-14 13 17 13 17 4 -8 -6 -18 -6 -29 0 -33 6 -4 10 3 10 15 0 12 3 19 8 16 4
-2 8 9 8 25 1 16 -2 26 -7 23 -5 -3 -9 2 -9 10 0 9 -4 16 -9 16 -5 0 -7 -10
-4 -22z"/>
<path d="M1413 1342 c1 -14 5 -18 11 -12 7 7 6 14 -1 21 -9 9 -12 7 -10 -9z"/>
<path d="M1240 1343 c0 -4 5 -15 10 -23 8 -13 10 -13 10 2 0 9 -4 20 -10 23
-5 3 -10 3 -10 -2z"/>
<path d="M1280 1340 c-9 -6 -10 -10 -3 -10 6 0 15 5 18 10 8 12 4 12 -15 0z"/>
<path d="M1450 1340 c0 -5 5 -10 10 -10 6 0 10 5 10 10 0 6 -4 10 -10 10 -5 0
-10 -4 -10 -10z"/>
<path d="M1540 1340 c0 -5 5 -10 11 -10 5 0 7 5 4 10 -3 6 -8 10 -11 10 -2 0
-4 -4 -4 -10z"/>
<path d="M1299 1313 c-10 -2 -19 -13 -22 -25 -3 -11 -10 -17 -15 -14 -6 3 -13
0 -15 -6 -4 -10 -6 -10 -6 0 -1 6 -6 12 -11 12 -7 0 -7 -6 0 -20 8 -16 7 -22
-10 -32 -11 -7 -20 -18 -20 -25 0 -7 -5 -13 -12 -13 -6 0 -9 -2 -6 -5 9 -9 38
7 38 21 0 14 11 18 43 15 9 -1 17 3 17 8 0 6 -5 11 -10 11 -18 0 9 40 28 41
11 0 13 2 4 6 -10 4 -9 8 5 19 19 14 18 14 -8 7z"/>
<path d="M1363 1300 c6 -10 15 -16 19 -14 14 9 9 22 -11 27 -17 4 -18 2 -8
-13z"/>
<path d="M1327 1303 c-2 -5 -3 -34 -2 -65 2 -38 -1 -55 -8 -51 -6 3 -7 1 -3
-5 5 -8 -1 -12 -15 -12 -12 0 -19 -3 -15 -7 4 -4 15 -8 24 -8 10 0 19 -10 21
-25 l4 -25 7 25 c3 14 13 25 22 25 9 0 20 4 24 8 4 4 -3 7 -15 7 -14 0 -20 4
-15 12 4 6 3 8 -3 5 -6 -4 -11 14 -12 46 -3 79 -4 87 -14 70z"/>
<path d="M2570 1291 c-10 -15 -18 -17 -32 -10 -25 14 -23 4 7 -26 31 -30 39
-32 25 -5 -8 16 -7 22 10 32 11 7 20 16 20 20 0 14 -15 8 -30 -11z"/>
<path d="M2660 1300 c0 -5 5 -10 10 -10 6 0 10 5 10 10 0 6 -4 10 -10 10 -5 0
-10 -4 -10 -10z"/>
<path d="M2703 1271 c-11 -17 8 -46 21 -33 4 3 9 -4 13 -16 3 -12 12 -22 19
-22 21 0 17 27 -6 33 -14 4 -18 11 -15 29 5 28 -16 34 -32 9z"/>
<path d="M1390 1263 c0 -8 5 -11 10 -8 6 3 10 1 10 -4 0 -6 -4 -11 -10 -11 -5
0 -10 -4 -10 -8 0 -5 7 -9 15 -9 16 0 27 21 19 40 -7 18 -34 18 -34 0z"/>
<path d="M1430 1269 c0 -5 5 -7 10 -4 6 3 10 8 10 11 0 2 -4 4 -10 4 -5 0 -10
-5 -10 -11z"/>
<path d="M2617 1266 c-3 -8 2 -20 11 -28 11 -9 14 -10 8 0 -4 7 -1 12 9 12 15
0 15 2 1 15 -18 19 -22 19 -29 1z"/>
<path d="M2525 1251 c4 -8 -1 -14 -14 -18 -11 -3 -19 -9 -16 -13 3 -4 -2 -13
-10 -20 -12 -10 -15 -9 -15 4 0 9 -4 16 -10 16 -5 0 -7 -8 -4 -17 4 -14 1 -13
-14 5 -24 26 -32 28 -32 7 0 -8 6 -15 14 -15 16 0 41 -54 31 -69 -3 -6 -2 -11
4 -11 5 0 12 8 14 18 4 14 6 14 12 -5 8 -26 35 -31 35 -8 0 8 -6 15 -14 15 -8
0 -16 7 -20 15 -7 20 3 45 19 45 7 0 15 9 18 21 4 13 10 18 18 14 7 -5 10 -3
7 5 -2 8 -10 16 -18 18 -8 3 -10 0 -5 -7z"/>
<path d="M1430 1231 c0 -6 5 -11 10 -11 6 0 10 -6 10 -14 0 -12 28 -31 36 -24
4 4 -18 31 -38 47 -12 9 -18 10 -18 2z"/>
<path d="M2830 1219 c0 -6 -8 -18 -17 -27 -16 -16 -16 -16 -11 6 8 28 3 28
-27 -3 -31 -30 -32 -39 -4 -24 17 9 20 8 17 -3 -2 -7 -14 -17 -26 -23 -24 -11
-30 -35 -8 -35 7 0 17 10 21 23 6 19 8 19 12 5 2 -10 8 -18 13 -18 4 0 5 10 2
23 -5 21 -5 21 11 5 9 -9 17 -21 17 -27 0 -6 5 -11 10 -11 16 0 12 27 -5 34
-8 3 -15 15 -15 26 0 11 7 23 15 26 17 7 21 34 5 34 -5 0 -10 -5 -10 -11z"/>
<path d="M1110 1206 c0 -7 8 -16 19 -19 14 -3 17 0 14 14 -6 22 -33 26 -33 5z"/>
<path d="M1158 1198 c-2 -15 -11 -24 -26 -26 -12 -2 -20 -7 -17 -12 3 -5 15
-6 28 -1 21 8 23 7 19 -20 -2 -16 0 -29 5 -29 5 0 9 10 9 23 -1 17 4 21 22 20
12 -2 22 2 22 7 0 6 -12 10 -26 10 -21 0 -25 4 -21 20 3 11 1 22 -3 25 -5 3
-10 -5 -12 -17z"/>
<path d="M1500 1215 c-1 -5 -3 -17 -4 -25 0 -8 -12 -17 -26 -21 -24 -7 -22
-10 10 -13 9 0 15 -10 14 -23 -1 -27 13 -31 19 -5 4 14 6 14 12 -5 8 -26 35
-31 35 -8 0 8 -6 15 -14 15 -8 0 -17 7 -20 16 -4 12 -2 15 9 11 8 -4 17 -2 20
3 3 5 -5 10 -17 12 -14 2 -25 13 -29 28 -4 14 -8 21 -9 15z"/>
<path d="M1527 1201 c-3 -14 0 -17 14 -14 22 6 26 33 5 33 -7 0 -16 -8 -19
-19z"/>
<path d="M2624 1204 c4 -9 -1 -27 -9 -40 -9 -13 -11 -24 -5 -24 5 0 10 5 10
10 0 6 5 10 10 10 7 0 7 -6 0 -20 -13 -24 -5 -26 17 -5 11 12 12 19 4 29 -9
11 -9 15 1 18 10 4 9 9 -4 21 -21 22 -32 22 -24 1z"/>
<path d="M2605 1190 c3 -5 8 -10 11 -10 2 0 4 5 4 10 0 6 -5 10 -11 10 -5 0
-7 -4 -4 -10z"/>
<path d="M2410 1170 c0 -5 5 -10 10 -10 6 0 10 5 10 10 0 6 -4 10 -10 10 -5 0
-10 -4 -10 -10z"/>
<path d="M2495 1170 c-3 -5 -1 -10 4 -10 6 0 11 5 11 10 0 6 -2 10 -4 10 -3 0
-8 -4 -11 -10z"/>
<path d="M2580 1170 c0 -5 5 -10 10 -10 6 0 10 5 10 10 0 6 -4 10 -10 10 -5 0
-10 -4 -10 -10z"/>
<path d="M2660 1170 c0 -5 5 -10 10 -10 6 0 10 5 10 10 0 6 -4 10 -10 10 -5 0
-10 -4 -10 -10z"/>
<path d="M2830 1170 c0 -5 5 -10 10 -10 6 0 10 5 10 10 0 6 -4 10 -10 10 -5 0
-10 -4 -10 -10z"/>
<path d="M1140 1142 c0 -7 -7 -12 -15 -12 -8 0 -15 -4 -15 -10 0 -16 27 -11
34 6 4 9 4 19 1 22 -3 3 -5 0 -5 -6z"/>
<path d="M1180 1139 c0 -5 5 -7 10 -4 6 3 10 8 10 11 0 2 -4 4 -10 4 -5 0 -10
-5 -10 -11z"/>
<path d="M1467 1136 c-19 -14 -23 -36 -7 -36 6 0 10 6 10 14 0 8 6 16 13 19 6
2 10 7 7 10 -3 3 -13 0 -23 -7z"/>
<path d="M2410 1125 c0 -8 5 -15 10 -15 6 0 10 7 10 15 0 8 -4 15 -10 15 -5 0
-10 -7 -10 -15z"/>
<path d="M1200 1115 c0 -8 5 -15 10 -15 6 0 10 7 10 15 0 8 -4 15 -10 15 -5 0
-10 -7 -10 -15z"/>
<path d="M1965 1120 c-4 -6 -1 -18 6 -26 11 -14 13 -14 21 0 15 26 -12 51 -27
26z"/>
<path d="M1930 1069 c0 -7 8 -18 18 -25 15 -12 15 -13 -10 -14 -15 0 -30 5
-34 11 -5 8 -10 6 -16 -6 -12 -21 4 -41 23 -29 7 4 24 9 37 10 l24 3 -23 -20
c-12 -10 -19 -22 -15 -26 3 -4 13 2 21 13 13 17 14 17 15 2 0 -10 4 -18 10
-18 5 0 9 10 7 23 -2 17 3 22 21 20 24 -3 30 11 10 21 -10 5 -10 7 0 12 14 7
16 34 2 34 -5 0 -10 -5 -10 -11 0 -6 -6 -16 -13 -23 -11 -11 -17 -11 -30 -1
-9 7 -17 17 -17 24 0 6 -4 11 -10 11 -5 0 -10 -5 -10 -11z"/>
<path d="M1970 1060 c0 -5 5 -10 10 -10 6 0 10 5 10 10 0 6 -4 10 -10 10 -5 0
-10 -4 -10 -10z"/>
<path d="M2044 1029 c-10 -17 13 -36 27 -22 12 12 4 33 -11 33 -5 0 -12 -5
-16 -11z"/>
<path d="M1990 1004 c0 -10 31 -36 37 -31 3 3 -2 13 -10 22 -16 15 -27 19 -27
9z"/>
<path d="M1967 953 c-4 -4 -4 -22 -1 -41 5 -25 3 -33 -5 -28 -6 4 -11 3 -11
-2 0 -14 27 -22 48 -16 14 5 14 4 2 -4 -8 -6 -28 -8 -45 -5 -26 6 -28 4 -17
-9 13 -16 57 -19 80 -4 21 13 -6 38 -32 30 -18 -6 -19 -5 -8 9 8 9 11 21 8 26
-4 5 -2 12 3 16 6 3 8 12 4 20 -6 16 -16 19 -26 8z"/>
<path d="M1770 895 c0 -8 2 -15 4 -15 2 0 12 -3 21 -6 15 -6 15 -4 4 15 -16
25 -29 27 -29 6z"/>
<path d="M1820 905 c-1 -5 -3 -17 -4 -25 0 -8 -10 -15 -21 -15 -11 0 -20 -5
-20 -10 0 -5 9 -10 20 -10 12 0 20 -7 20 -17 0 -9 4 -20 8 -24 4 -4 7 3 7 15
0 13 9 26 23 32 20 8 19 9 -8 5 -28 -4 -28 -3 -10 10 10 8 22 14 27 14 4 0 8
7 8 15 0 21 -16 19 -25 -2 -7 -17 -8 -16 -15 2 -5 11 -9 16 -10 10z"/>
<path d="M2090 895 c0 -8 4 -15 8 -15 5 0 17 -7 28 -15 18 -14 17 -14 -8 -5
-22 7 -28 7 -28 -5 0 -9 6 -12 17 -8 11 4 14 3 9 -5 -4 -7 -2 -12 3 -12 6 0
11 -7 11 -17 0 -9 3 -13 7 -9 4 4 8 15 8 24 0 9 8 17 17 17 10 0 18 5 18 10 0
5 -8 10 -18 10 -9 0 -17 8 -17 17 0 24 -15 35 -15 12 -1 -18 -1 -18 -14 -1
-16 21 -26 22 -26 2z"/>
<path d="M2163 903 c4 -3 2 -12 -4 -19 -8 -9 -5 -11 10 -7 25 6 28 33 4 33 -9
0 -13 -3 -10 -7z"/>
<path d="M1783 833 c-14 -5 -18 -33 -5 -33 4 0 13 9 20 20 12 20 8 23 -15 13z"/>
<path d="M1840 830 c0 -11 29 -40 41 -40 12 0 -12 38 -28 44 -7 3 -13 1 -13
-4z"/>
<path d="M2162 820 c15 -23 28 -26 28 -6 0 8 -7 17 -16 20 -24 9 -25 8 -12
-14z"/>
<path d="M1970 815 c0 -8 5 -15 10 -15 6 0 10 7 10 15 0 8 -4 15 -10 15 -5 0
-10 -7 -10 -15z"/>
<path d="M2080 805 c-7 -14 -17 -25 -22 -25 -5 0 -6 5 -3 10 3 6 -1 10 -10 10
-12 0 -14 -4 -6 -17 7 -13 4 -22 -12 -35 -11 -10 -17 -21 -13 -25 4 -5 12 0
17 10 6 9 22 17 37 17 19 0 23 3 13 9 -11 7 -9 13 8 30 21 21 28 41 13 41 -5
0 -15 -11 -22 -25z"/>
<path d="M1651 786 c-7 -8 -8 -17 -3 -20 5 -3 9 -20 9 -38 1 -31 0 -31 -10
-10 -5 12 -16 22 -24 22 -18 0 -17 -16 2 -24 8 -3 15 -15 15 -26 0 -11 -7 -23
-15 -26 -18 -7 -20 -34 -2 -34 7 0 18 12 23 28 l11 27 -1 -32 c-1 -17 -5 -35
-9 -39 -4 -4 -2 -13 4 -21 9 -10 15 -11 25 -2 11 9 11 15 3 25 -6 7 -9 23 -6
36 l4 23 8 -22 c8 -26 20 -30 29 -8 3 9 0 15 -9 15 -18 0 -20 16 -2 23 9 4 8
8 -3 16 -13 10 -13 12 0 20 8 6 11 13 7 17 -4 4 -14 -1 -22 -12 -14 -18 -14
-18 -15 7 0 14 5 30 10 35 8 8 7 14 -3 23 -11 9 -17 8 -26 -3z m39 -96 c0 -5
-4 -10 -10 -10 -5 0 -10 5 -10 10 0 6 5 10 10 10 6 0 10 -4 10 -10z"/>
<path d="M1898 786 c-10 -7 -15 -16 -11 -19 3 -4 1 -7 -6 -7 -7 0 -9 -5 -5
-11 4 -8 9 -7 15 2 7 11 14 8 34 -13 14 -16 28 -28 30 -28 11 0 3 12 -27 40
-17 17 -25 28 -17 25 10 -4 16 0 16 10 0 18 -6 19 -29 1z"/>
<path d="M2282 788 c-8 -8 -8 -15 -1 -24 6 -7 9 -23 6 -36 l-4 -23 -8 22 c-4
13 -13 19 -21 16 -18 -7 -18 -23 0 -23 17 0 28 -24 20 -45 -4 -8 -13 -15 -21
-15 -8 0 -13 -5 -11 -12 7 -21 25 -19 33 4 l8 23 4 -23 c3 -13 0 -29 -6 -36
-8 -10 -8 -16 3 -25 10 -9 16 -8 25 3 7 8 8 17 3 20 -5 3 -9 18 -9 33 l0 28
14 -22 c9 -13 19 -23 24 -23 16 0 9 22 -13 41 l-23 19 23 19 c12 11 22 22 22
25 0 13 -23 5 -36 -11 -12 -16 -13 -16 -12 7 1 14 5 30 10 36 12 17 -15 37
-30 22z"/>
<path d="M1965 781 c-7 -12 12 -24 25 -16 11 7 4 25 -10 25 -5 0 -11 -4 -15
-9z"/>
<path d="M1805 727 c-14 -17 -13 -59 2 -75 10 -11 17 -9 38 12 28 29 32 41 9
32 -8 -3 -12 -2 -9 4 4 6 0 17 -9 25 -17 18 -18 18 -31 2z m20 -17 c3 -5 1
-10 -4 -10 -6 0 -11 5 -11 10 0 6 2 10 4 10 3 0 8 -4 11 -10z m5 -34 c0 -3 -4
-8 -10 -11 -5 -3 -10 -1 -10 4 0 6 5 11 10 11 6 0 10 -2 10 -4z"/>
<path d="M2123 725 c-17 -18 -16 -25 1 -25 7 0 16 9 19 20 6 23 -3 25 -20 5z"/>
<path d="M1571 706 c-18 -21 1 -48 20 -29 6 6 18 9 25 6 8 -3 14 0 14 6 0 6
-9 11 -19 11 -11 0 -21 5 -23 11 -2 7 -9 5 -17 -5z"/>
<path d="M1731 703 c-11 -13 -11 -17 3 -31 10 -11 16 -12 16 -4 0 7 9 12 20
12 11 0 20 5 20 10 0 6 -9 10 -19 10 -11 0 -21 4 -23 9 -1 5 -9 2 -17 -6z"/>
<path d="M2146 704 c-4 -11 -13 -14 -31 -10 -31 8 -31 2 0 -29 30 -31 34 -31
29 -2 -2 12 -2 16 2 10 3 -7 10 -13 15 -13 6 0 7 5 4 10 -4 6 5 10 19 10 14 0
26 -5 26 -11 0 -6 7 -3 16 5 13 14 14 18 1 30 -8 8 -18 11 -23 6 -5 -4 -20
-11 -34 -15 -22 -7 -23 -6 -11 9 7 9 9 16 3 16 -5 0 -13 -7 -16 -16z"/>
<path d="M1890 690 c0 -13 5 -18 15 -14 8 4 15 10 15 14 0 4 -7 10 -15 14 -10
4 -15 -1 -15 -14z"/>
<path d="M2050 690 c0 -19 3 -21 12 -12 9 9 9 15 0 24 -9 9 -12 7 -12 -12z"/>
<path d="M2365 699 c-4 -6 -13 -8 -21 -5 -7 3 -16 1 -19 -4 -4 -6 5 -10 19
-10 14 0 26 -5 26 -10 0 -6 6 -5 14 2 7 7 11 19 9 25 -6 16 -20 17 -28 2z"/>
<path d="M2250 690 c0 -5 5 -10 10 -10 6 0 10 5 10 10 0 6 -4 10 -10 10 -5 0
-10 -4 -10 -10z"/>
<path d="M1928 645 c-15 -17 -28 -23 -42 -19 -15 4 -17 3 -7 -4 11 -8 9 -14
-8 -31 -11 -11 -21 -25 -21 -31 0 -5 -4 -10 -10 -10 -5 0 -10 7 -10 16 0 8 -4
13 -10 9 -5 -3 -7 -13 -4 -23 4 -12 0 -11 -14 6 -11 12 -23 22 -26 22 -13 0
-5 -23 12 -37 9 -7 12 -12 7 -11 -5 2 -10 -1 -10 -7 0 -5 5 -9 10 -7 5 1 2 -4
-7 -11 -17 -14 -25 -37 -12 -37 3 0 14 10 25 23 l19 22 19 -22 c11 -13 22 -23
25 -23 13 0 5 23 -11 37 -17 14 -17 14 0 9 9 -3 17 -1 17 4 0 6 -8 10 -17 10
-17 1 -17 1 0 14 9 7 17 18 17 24 0 13 26 23 43 16 8 -3 14 2 14 11 0 11 -7
14 -21 10 -21 -6 -21 -6 -1 6 19 12 55 48 55 56 0 9 -12 1 -32 -22z"/>
<path d="M2007 655 c3 -8 9 -12 14 -9 12 7 11 11 -5 17 -10 4 -13 1 -9 -8z"/>
<path d="M1975 650 c-3 -5 -1 -10 4 -10 6 0 11 5 11 10 0 6 -2 10 -4 10 -3 0
-8 -4 -11 -10z"/>
<path d="M2030 631 c0 -5 6 -12 13 -14 10 -4 10 -6 0 -6 -7 -1 -13 -8 -13 -17
0 -11 6 -15 19 -11 12 3 27 -4 39 -17 10 -11 28 -26 38 -32 18 -11 17 -12 -8
-24 -16 -7 -28 -19 -28 -27 0 -18 10 -16 26 5 13 16 13 16 14 0 0 -10 4 -18
10 -18 5 0 9 10 7 23 -1 14 3 22 13 22 18 0 25 19 7 21 -39 3 -40 4 -28 18 8
10 9 16 1 21 -5 3 -10 -1 -10 -9 0 -9 -4 -16 -10 -16 -5 0 -10 6 -10 13 0 8
-11 20 -25 27 -23 12 -23 14 -7 27 13 11 13 13 2 10 -8 -2 -23 0 -32 5 -11 5
-18 5 -18 -1z"/>
<path d="M1965 611 c-7 -12 12 -24 25 -16 11 7 4 25 -10 25 -5 0 -11 -4 -15
-9z"/>
<path d="M2161 559 c-11 -19 -11 -21 4 -15 9 3 19 6 21 6 2 0 4 7 4 15 0 21
-13 19 -29 -6z"/>
<path d="M1963 555 c-10 -11 -10 -15 0 -18 7 -3 2 -6 -10 -6 -13 -1 -23 -6
-23 -12 0 -6 10 -8 23 -5 12 3 16 3 10 0 -7 -3 -13 -10 -13 -16 0 -6 6 -6 15
2 8 6 19 9 25 5 6 -4 17 -1 26 5 20 18 -2 43 -30 34 -18 -6 -19 -5 -7 10 16
19 1 21 -16 1z m42 -43 c-3 -3 -11 0 -18 7 -9 10 -8 11 6 5 10 -3 15 -9 12
-12z"/>
<path d="M2090 525 c0 -8 8 -11 20 -8 11 3 20 7 20 8 0 1 -9 5 -20 8 -12 3
-20 0 -20 -8z"/>
<path d="M2159 497 c6 -8 8 -17 4 -20 -3 -4 1 -7 10 -7 22 0 22 26 1 34 -24 9
-28 7 -15 -7z"/>
<path d="M1816 491 c-4 -7 -5 -15 -2 -18 9 -9 19 4 14 18 -4 11 -6 11 -12 0z"/>
<path d="M1970 480 c0 -5 5 -10 10 -10 6 0 10 5 10 10 0 6 -4 10 -10 10 -5 0
-10 -4 -10 -10z"/>
<path d="M1966 452 c-2 -4 0 -14 5 -22 8 -13 10 -13 18 0 10 15 6 30 -9 30 -5
0 -11 -4 -14 -8z"/>
<path d="M1930 402 c0 -5 9 -17 20 -27 20 -18 20 -18 0 -35 -21 -18 -27 -40
-10 -40 6 0 10 6 10 14 0 8 7 16 15 20 21 8 45 -3 45 -20 0 -8 5 -14 10 -14
16 0 12 22 -7 36 -16 12 -15 13 10 14 15 0 27 -4 27 -10 0 -16 17 -11 24 7 8
21 -8 38 -25 27 -22 -13 -48 -12 -42 3 3 7 9 10 14 7 5 -3 9 2 9 10 0 22 -8
20 -31 -6 l-19 -23 -19 23 c-20 23 -31 28 -31 14z"/>
<path d="M1970 400 c0 -5 5 -10 10 -10 6 0 10 5 10 10 0 6 -4 10 -10 10 -5 0
-10 -4 -10 -10z"/>
<path d="M1884 369 c-10 -17 13 -36 27 -22 12 12 4 33 -11 33 -5 0 -12 -5 -16
-11z"/>
<path d="M1930 360 c0 -5 5 -10 10 -10 6 0 10 5 10 10 0 6 -4 10 -10 10 -5 0
-10 -4 -10 -10z"/>
<path d="M1970 320 c0 -5 5 -10 10 -10 6 0 10 5 10 10 0 6 -4 10 -10 10 -5 0
-10 -4 -10 -10z"/>
<path d="M1964 285 c-9 -23 10 -40 25 -22 9 11 8 17 -4 27 -12 10 -16 9 -21
-5z"/>
</g>
</svg>
